<svg xmlns="http://www.w3.org/2000/svg" fill="none" viewBox="0 0 24 24" stroke-width="1.5" stroke="currentColor">
  <path stroke-linecap="round" stroke-linejoin="round" d="M16.5 18.75h-9m9 0a3 3 0 013 3h-15a3 3 0 013-3m9 0v-3.375c0-.621-.503-1.125-1.125-1.125h-.871M7.5 18.75v-3.375c0-.621.504-1.125 1.125-1.125h.872m5.007 0H9.497m5.007 0a7.454 7.454 0 01-.982-3.172M9.497 14.25a7.454 7.454 0 00.981-3.172M5.25 4.236c-.982.143-1.954.317-2.916.52A6.003 6.003 0 007.73 9.728M18.75 4.236c.982.143 1.954.317 2.916.52a6.003 6.003 0 01-5.395 4.972m0 0a5.002 5.002 0 00-10.742 0m10.742 0V4.236m-10.742 0V4.236m10.742 0c-1.464-.52-3.037-.8-4.671-.8-1.634 0-3.207.28-4.67.8" />
</svg>
