<svg xmlns="http://www.w3.org/2000/svg" xmlns:svg="http://www.w3.org/2000/svg" width="527.0462766947298" height="189.73665961010275" viewBox="0 0 800 288.12262" fill="none" version="1.1" id="svg87">
  <defs id="defs87"/>
  <path d="m 154.92291,186.8046 c 0,0 -9.52061,0.86345 -12.98237,-0.57563 l -2.59648,6.04444 c 2.01931,2.01502 1.44245,5.75663 1.44245,5.75663 l 1.44246,3.16628 c 0,0 -8.94345,4.02973 -16.73288,4.89318 -6.34697,0.57563 -15.29011,-2.30253 -15.29011,-2.30253 0,2.59034 -0.57717,5.46881 -2.30805,6.33226 -1.44245,0.86345 -2.8849,2.87847 -2.8849,5.181 v 4.31755 H 92.31908 c 0,0 0.86559,-2.59065 1.73088,-4.60537 0.8656,-2.01471 4.03893,-3.74191 5.77012,-5.46881 2.01931,-2.30284 3.75049,-7.48383 3.75049,-7.48383 0,0 -3.46206,-3.16598 -11.53992,-11.80107 -8.65502,-8.92291 -11.82836,-20.43648 -12.40552,-21.87556 -0.86528,-0.28781 -8.07785,-2.87847 -10.09716,-3.4541 -1.44245,-0.57563 -2.59648,0 -2.8849,0 0.28842,0.86376 0.86528,4.02973 1.44245,6.33257 0.28843,1.43908 1.73088,2.87816 2.88491,4.02973 1.15401,1.15127 2.30804,2.01471 2.30804,2.01471 l -1.15403,2.30253 5.19296,3.16629 -3.17364,10.07417 c 0,0 -3.46177,-2.59034 -6.92384,-7.19571 -2.30804,-3.16628 -4.90452,-9.49854 -7.78943,-22.739 -0.86558,-3.74192 -0.28842,-7.19602 2.30806,-6.9082 1.15402,0 11.82834,1.7272 11.82834,1.7272 0,0 5.48139,-7.77164 7.21227,-10.6498 2.30804,-3.4541 -1.73088,-16.69456 -4.61579,-16.69456 -0.8656,0 -1.15402,1.15126 -0.8656,2.59065 1.15403,0.28781 2.01963,1.43908 2.01963,2.59034 0,1.43908 -1.15403,2.59065 -2.59648,2.59065 0,0 0.57685,4.60537 0,5.181 -0.57716,0.86345 -4.61609,2.01471 -6.34697,2.01471 -2.30804,0 -4.6161,-4.89318 -5.76982,-7.48352 -0.86558,-2.59065 -4.32765,-14.67954 -5.19294,-18.99709 -0.57716,-3.16628 0.86529,-7.48383 2.0193,-8.92291 l -1.44245,-8.34728 5.48139,3.74191 -2.88491,-6.332565 8.65503,4.893185 c 1.73088,-0.57564 3.46176,-0.86345 5.19264,-0.86345 1.44276,0 2.59646,0 4.32766,0.28781 2.8849,0.28782 6.34696,1.15157 11.25119,3.16629 l 0.28873,-0.28782 c 0,0 0.28843,0.28782 0.28843,0.57563 1.73088,0.86345 3.46176,1.7269 5.48138,2.87847 0.86559,0.28782 1.44245,0.86345 2.30804,1.15127 0.86529,0.28781 1.44246,0.86344 2.01931,1.15126 0,0 5.77012,3.74192 6.05855,3.74192 1.15402,0.86344 2.30805,1.43908 3.46176,2.01471 1.73119,1.15157 6.34697,2.59065 8.07816,3.16628 0.57686,0.28782 1.15372,0.28782 1.73088,0.57563 0,0 3.46177,1.15127 4.03893,0 0.57686,-1.43908 0.86559,-2.59034 0.86559,-4.31754 0,-1.7269 -1.44275,-8.6351 -1.44275,-8.6351 -0.28843,0 -3.46177,-1.15126 -4.03893,-1.43908 -0.28843,0 -0.57686,-0.28782 -0.57686,-0.28782 -0.57686,-0.57563 -0.28843,-5.46881 0.28843,-6.62007 0.57716,-1.151575 1.73119,-1.439391 3.17364,-1.151575 l -3.46207,-16.982068 c -1.15402,-0.287816 -2.30805,-0.863449 -2.8849,-2.878468 -0.28843,-1.726896 0.57685,-3.454099 1.44245,-4.029731 -0.57717,-1.726897 -2.30805,-3.165978 -4.32736,-3.165978 h -0.86559 c -2.30805,0.575633 -4.03893,2.878161 -3.46207,5.180997 0.28874,1.151264 0.86559,2.014712 2.01962,2.878161 0.86528,0.863754 0.57685,1.727203 0.28842,2.015019 -0.28842,0.287816 -0.57685,0.575632 -0.86559,0.575632 h -0.28843 c -2.01931,0 -3.7505,-3.4541 -4.03892,-5.180996 -0.8656,-4.029732 2.01961,-8.059464 6.05854,-8.635096 2.01931,-0.287816 4.03893,0 5.48138,1.151264 -0.28843,-1.726896 -1.15402,-6.33226 -1.15402,-6.33226 0,0 2.30804,-0.575632 3.17333,5.180996 0.28873,1.43908 0.86559,4.89318 0.86559,5.468812 1.15403,0.287816 2.88491,1.151265 2.88491,3.741916 0,1.43908 -0.28843,2.014713 -1.44245,3.166283 l 3.75049,18.421456 c 2.30805,0.863446 2.88491,1.151266 2.88491,1.151266 1.15402,-4.029733 4.61609,-12.377013 8.36659,-17.270193 l 0.28843,-4.605364 c 0,0 1.15402,-0.287816 1.15402,-1.151264 0,-0.575632 -1.44245,-1.151265 -1.44245,-1.151265 v -2.015019 l -2.01962,-0.575632 2.01962,-6.33226 -0.8656,-0.575633 c 0,0 -0.57716,-4.317547 0.8656,-14.391724 1.44245,-9.498544 2.30774,-12.664827 2.30774,-12.664827 l 4.61609,13.240459 4.03893,-13.528275 4.61578,31.949731 c 4.32766,1.439081 6.34697,4.89318 6.92414,8.346974 0.28843,3.166283 -1.15402,5.180996 -1.73119,6.04475 l 5.77012,46.053332 c 0,0 0.28843,1.43939 1.73088,2.01502 1.15402,0.28782 23.94513,3.4541 26.25318,4.02973 6.6354,0.86345 10.96276,9.21073 15.86728,9.78636 4.61578,0.57564 7.21226,-0.86344 10.67433,-6.04475 3.46207,-5.18099 9.23187,-10.64981 15.57885,-8.34697 5.48138,2.01471 8.65471,8.05916 6.34697,11.51326 -13.2708,18.99708 2.88491,14.96735 2.88491,14.96735 0,0 -3.17364,4.02973 -8.65502,3.16629 -9.52031,-2.01472 -4.03893,-11.80138 -8.07786,-13.8161 -4.90452,-2.30252 -9.5203,7.48384 -20.48306,2.59066 5.48138,9.49854 -4.90452,18.13333 1.15402,33.38881 l 7.21226,19.57271 h -8.07785 v 1.7269 c 0,1.7272 -0.8656,3.16628 -2.59648,4.02973 -1.44245,0.86345 -2.8849,4.60537 -2.8849,4.60537 v 4.89318 h -12.69395 l 0.28843,-0.28782 c 0,0 0.86559,-2.87846 2.59647,-4.89318 2.30805,-2.87847 6.05855,-5.181 7.78943,-10.07418 h -21.06023 v 1.7269 c 0,1.7272 -0.86529,2.87847 -2.59647,4.02973 -2.01932,1.43908 -2.88491,4.60537 -2.88491,4.60537 v 4.89318 H 158.6731 l 0.28874,-0.28782 c 0,0 0.57686,-1.72689 1.73088,-3.4541 1.15402,-1.7269 4.03893,-4.60536 5.48138,-5.75663 1.44245,-0.86345 2.59647,-3.4541 2.8849,-5.75663 l -14.13609,3.16629 0.57686,-3.4541 c 0,0 -2.8849,-1.15127 -3.17333,-2.30284 -0.8656,-3.74191 4.90421,-5.18099 2.59647,-15.54298 z" fill="#58595b" id="path1" style="stroke-width:3.06513"/>
  <path d="m 65.48904,259.33915 c -0.57716,0.57563 -0.57716,0.86346 0,1.43908 l 0.8656,0.57595 v 0.28781 l -0.28873,0.28782 h -0.28844 c -0.28843,0 -0.86559,-0.86376 -2.59647,-2.01503 -1.44245,-1.15125 -2.30805,-1.72689 -2.59648,-1.72689 v -0.28782 l 0.28843,-0.57562 h 0.28873 l 0.86529,0.57562 c 0.57716,0.28782 1.15403,0.28782 1.44246,0 0.28873,-0.28781 0.86558,-1.15126 1.73118,-2.30284 l 1.44246,-2.0147 c 0.57685,-0.86346 1.44245,-2.01502 2.0193,-2.59066 0.57718,-0.86345 0.8656,-1.72689 0.8656,-2.59034 0,-1.15127 -0.8656,-2.30283 -1.44245,-2.87847 -0.8656,-0.57563 -2.01961,-0.86344 -2.88491,-0.86344 -1.15402,0.28781 -2.30804,0.86344 -3.17364,2.30252 l -2.30773,3.16628 c -1.15403,1.43909 -2.01963,2.87848 -2.30805,3.45411 -0.28843,0.57562 -0.28843,0.86345 0.28842,1.15126 l 0.57687,0.57563 v 0.28781 l -0.28844,0.57564 h -0.28843 c -0.28842,0 -0.86558,-0.86345 -2.01961,-1.72689 -1.15372,-0.86345 -1.73088,-1.15127 -1.73088,-1.15127 -0.28843,0 0,-0.28781 0,-0.28781 l 0.28843,-0.28783 h 0.28873 l 0.57687,0.57564 c 0.57685,0.57563 1.15401,0 1.15401,-0.28781 0.28844,-0.28783 2.01932,-2.59065 2.01932,-2.87848 0.28873,-0.28781 2.30804,-3.16628 2.8852,-3.74191 1.15372,-1.43908 2.30775,-2.01472 4.03893,-2.30253 1.15403,0 2.59648,0.28781 4.03894,1.15127 0.86528,0.57562 1.73088,1.43908 2.30773,2.30284 0.57716,1.15125 0.8656,2.59033 0.28873,3.7416 -0.28873,0.86376 -1.15402,2.01502 -2.8849,4.31754 z" fill="#58595b" id="path2" style="stroke-width:3.06513"/>
  <path d="m 51.92981,244.08398 c 2.59647,-2.59065 4.6161,-4.89317 4.90452,-5.46912 0.57716,-0.86344 0.86559,-1.43908 0.28843,-2.01471 l -0.28843,-0.28781 v -0.28783 l 0.28843,-0.28781 h 0.28873 l 1.73088,1.72689 c 0.28843,0.28783 1.44246,1.43939 1.73088,1.43939 v 0.28783 l -0.28842,0.28781 H 60.2964 l -0.57716,-0.28781 c -0.28844,-0.28783 -0.86529,-0.28783 -2.01932,0.57562 -0.28843,0.28782 -2.59647,2.30254 -4.90452,4.89319 l -2.01931,2.01471 c -0.8656,0.86345 -1.15402,2.01501 -0.28873,2.87846 l 0.57716,0.57563 v 0.28783 l -0.28843,0.28781 h -0.28873 l -0.57687,-0.57564 -1.44245,-1.43908 -0.57716,-0.57593 c -0.28843,-0.28782 -0.28843,-0.28782 -0.57685,-0.28782 -0.28843,-0.28781 -0.28843,-0.28781 -0.28843,-0.57564 0,-0.28781 0.57685,-6.90789 0.86528,-7.77133 0,-0.57564 0.57716,-5.75693 0.57716,-6.33257 l -1.44244,1.72721 -2.88491,2.87816 c -0.57717,0.57563 -2.01962,2.30283 -2.01962,2.59064 -0.28843,0.57564 0,1.15127 0.28844,1.43909 l 0.57716,0.57563 v 0.28781 l -0.28874,0.28782 h -0.28842 l -1.73088,-1.7269 c -0.8656,-0.86345 -1.44246,-1.15126 -1.44246,-1.43908 v -0.28781 l 0.28843,-0.28781 h 0.28843 l 0.57716,0.28781 c 0.28844,0.28781 0.57686,0.28781 1.44245,-0.28781 1.15403,-0.86376 3.75051,-3.45411 5.19296,-4.89319 l 4.03892,-4.02973 c 0.28843,-0.28782 0.28843,-0.57563 0.57685,-0.28782 0.28844,0.28782 0.28844,0.57563 0.28844,0.86346 0,0.28781 0,2.0147 -0.28844,4.02973 -0.28842,2.30252 -0.28842,4.89317 -0.57685,5.4688 0,0.28783 -0.57716,6.04445 -0.57716,6.33227 z" fill="#58595b" id="path3" style="stroke-width:3.06513"/>
  <path d="m 39.52429,227.10161 c 0.28843,0 4.03892,-3.45379 4.03892,-3.45379 0.57718,-0.57595 0.28844,-0.86376 0,-1.15157 l -0.57685,-0.57564 v -0.28782 l 0.28843,-0.28781 h 0.28842 c 0.28844,0.28781 0.57718,0.86344 2.01963,2.59065 1.44245,1.7269 2.01931,2.30252 2.30773,2.59035 v 0.28781 l -0.57685,0.28782 h -0.28843 l -0.57717,-0.57563 c -0.28843,-0.28783 -0.57685,-0.57564 -1.15403,-0.28783 -0.28842,0.28783 -3.75018,3.1663 -4.61577,3.74192 l -1.15403,0.57563 c -0.28842,0.28783 -3.46206,2.87848 -3.46206,3.16629 -0.28844,0.28782 -0.28844,0.57563 0,1.15127 l 0.57716,0.86344 v 0.28781 l -0.28843,0.28783 h -0.28873 c -0.28844,-0.28783 -0.8653,-1.15127 -2.30775,-2.59035 -1.44245,-1.72721 -1.73119,-2.01502 -2.01961,-2.30284 v -0.28781 l 0.28842,-0.28781 h 0.28874 l 0.57686,0.57562 c 0.28843,0.28782 0.57686,0.57563 0.86559,0.28782 0.28843,0 3.75051,-3.16598 4.03893,-3.16598 z" fill="#58595b" id="path4" style="stroke-width:3.06513"/>
  <path d="m 23.94544,219.61778 c 0,0 -0.28852,0 0,0 -0.28852,-0.28783 -0.86551,-1.15127 -1.731,-2.30253 -1.15396,-1.43908 -1.44245,-2.01471 -1.44245,-2.01471 v -0.28813 l 0.57697,-0.28782 h 0.28849 l 0.2885,0.28782 c 0.28849,0.86376 0.57701,1.15157 1.73097,1.15157 1.44248,0 4.90445,-0.86344 6.34695,-1.15157 1.15384,-0.28782 7.78924,-1.43908 8.07797,-1.7269 0.28843,0 0.28843,0 0.57685,0.28782 0.28843,0.28782 0,0.57563 -0.28842,0.57563 -1.15403,1.72721 -4.32736,5.75694 -5.48138,7.48383 -0.8656,1.43908 -2.59654,3.74192 -3.17354,4.31755 -0.2885,0.28781 -0.2885,0.86345 0,1.15127 l 0.28852,0.28781 v 0.28781 l -0.28852,0.28783 h -0.2885 c 0,-0.28783 -0.57698,-0.86345 -1.73097,-2.59035 l -1.73097,-2.59065 v -0.28781 l 0.28849,-0.28783 h 0.28848 l 0.57701,0.86345 c 0.2885,0.57564 0.57699,0.57564 0.86548,0.57564 l 0.577,-0.57564 c 0.57699,-0.57562 2.3079,-2.59034 2.88507,-3.74192 0.57685,-0.57562 2.59647,-3.45378 3.46176,-4.60536 -1.15403,0.28782 -4.90433,1.15158 -5.76984,1.15158 -1.15399,0.28781 -4.61593,0.86345 -5.19292,1.43908 -0.28852,0.28781 -0.28852,0.57562 0,1.15126 l 0.57699,0.57563 v 0.28781 z" fill="#58595b" id="path5" style="stroke-width:3.06513"/>
  <path d="m 25.09947,204.07479 c 1.15398,-0.57564 2.88496,-1.43939 3.17345,-1.72721 0.86551,-0.57563 1.15399,-1.15126 1.15399,-1.43908 0,-0.28781 -0.28848,-0.86345 -0.57698,-1.43908 0,-0.57563 -0.57701,-1.43938 -0.8655,-1.7272 -0.2885,-0.28782 -0.86547,-0.86345 -1.44248,-1.15126 -0.57699,-0.28782 -2.30796,-0.57563 -2.88496,-0.86345 0,0 -0.2885,0 -0.2885,-0.28782 v -0.28781 h 0.2885 l 3.46197,-0.57564 c 0.28849,0 0.28849,0 0.57697,0.28782 l 0.86551,1.7269 c 0.57699,1.15126 1.73097,3.16628 3.17343,6.33226 l 0.86558,1.7272 c 0.28844,0.28781 0.28844,0.57563 0.57687,0.86345 v 0.28781 l -0.57687,0.28782 h -0.28842 l -0.57716,-1.15127 c -0.57686,-0.86344 -0.57686,-0.86344 -1.44246,-0.57563 l -6.3469,3.16598 c -1.4425,0.86375 -4.03896,2.01502 -4.32746,2.30283 -0.57701,0.28782 -0.57701,0.57564 -0.28849,1.15127 l 0.28849,0.86345 v 0.28781 l -0.57701,0.28782 h -0.28849 c -0.28848,-0.28782 -0.57698,-1.15126 -1.44248,-2.59035 l -0.2885,-0.57563 c -0.28848,-0.86345 -2.59646,-5.18099 -3.17345,-6.04444 -0.28849,-0.28812 -0.28849,-0.57594 -0.28849,-0.86376 v -0.28781 c 0.28849,-0.28782 2.59648,-2.30253 2.59648,-2.30253 h 0.28849 0.86547 v 0.28781 c 0,0 -1.15396,2.59035 -1.15396,3.16629 0,0.57563 0,1.15126 0.28849,1.72689 l 1.44248,2.87817 5.48141,-2.87817 c -0.28849,-0.57563 -1.154,-2.01501 -1.154,-2.01501 -0.28848,-0.28782 -0.57697,-0.57564 -1.15396,-0.57564 -0.28849,0 -0.86549,0 -1.15398,0.28782 h -0.2885 l -0.28849,-0.57563 v -0.28782 c 0.28849,0 1.73097,-0.86345 2.01947,-1.15126 0.86546,-0.28782 1.73097,-0.86345 2.01946,-1.15127 h 0.2885 l 0.28852,0.28782 v 0.28781 L 23.08,200.9085 c -0.28849,0.28782 -0.28849,0.86345 -0.28849,1.43908 0.28849,0.86376 0.57698,1.72721 0.86548,2.30284 z" fill="#58595b" id="path6" style="stroke-width:3.06513"/>
  <path fill-rule="evenodd" clip-rule="evenodd" d="m 21.52833,188.56766 c -0.75729,0.25196 -1.6228,0.53977 -2.19978,0.82759 l -1.44248,0.57563 c 0,-0.28782 -0.2885,-0.57563 -0.2885,-0.57563 -0.28852,-0.86345 0,-1.43939 0.57699,-2.30284 0.28849,-0.57563 1.15399,-1.43908 1.44248,-1.72689 0,-0.28782 1.154,-1.7269 1.73097,-2.30284 0.12654,-0.25226 0.30844,-0.50452 0.47292,-0.73287 0.21064,-0.29211 0.39259,-0.54468 0.39259,-0.70621 0,-0.28781 -0.28849,-1.15126 -0.57701,-1.72689 -0.17586,-0.87755 -0.35172,-1.3269 -0.46226,-1.6092 -0.0708,-0.18084 -0.1148,-0.29333 -0.1148,-0.40582 h -0.28848 l -0.28849,0.28781 v 0.28782 c 0,0.0809 0.0228,0.18452 0.0491,0.30437 0.0675,0.30682 0.15841,0.72092 -0.0491,1.13502 -0.28852,0.57563 -1.44248,2.30252 -1.731,2.59034 0,0.11893 -0.24533,0.48215 -0.57411,0.9695 -0.46844,0.69395 -1.10633,1.63893 -1.44536,2.4846 -0.28849,0.28782 -0.57698,0.86345 -0.57698,1.43908 -1.15399,-2.01471 -2.59647,-3.16598 -5.19295,-2.30253 -0.86547,0.28782 -1.73097,1.15127 -2.01947,2.01471 -0.57697,0.86345 -0.57697,2.30284 0,4.02974 0.2885,0.57563 1.154,2.30283 1.44248,3.4541 0.57699,2.01471 0.86551,2.87815 0.86551,2.87815 h 0.28849 l 0.57698,-0.28781 v -0.28782 l -0.28848,-0.86344 c 0,-0.57564 0.28848,-0.86345 0.86546,-1.15127 l 5.48144,-2.01471 c 0.6667,-0.22192 1.37622,-0.48644 2.11203,-0.76046 1.17463,-0.4377 2.41625,-0.90054 3.65791,-1.25456 0.48644,-0.24276 0.56278,-0.076 0.74764,0.32705 0.0344,0.0751 0.0725,0.15816 0.11786,0.24858 l 0.28852,0.57563 h 0.2885 l 0.57698,-0.28781 v -0.28782 c 0,-0.14375 -0.0721,-0.28781 -0.25245,-0.64766 -0.18029,-0.35954 -0.46877,-0.93548 -0.90155,-1.94268 -0.35889,-1.43234 -0.60618,-2.08521 -0.74182,-2.44322 -0.0824,-0.21763 -0.1236,-0.32644 -0.1236,-0.43525 0,-0.28782 -0.2885,-0.28782 -0.2885,-0.28782 l -0.57701,0.28782 v 0.28782 l 0.57701,0.86344 c 0,0.28782 -0.28852,0.57564 -0.57701,0.86345 -0.14424,0.14406 -0.79335,0.35985 -1.55065,0.6118 z m -4.50776,0.53977 c 0.28848,0.28782 0.28848,0.57564 0.28848,0.86345 l -6.3469,1.7269 h -0.57699 c 0,0 -0.28848,-0.28782 -0.28848,-0.57563 -0.28849,-0.86345 -0.28849,-2.01472 0,-2.87817 0.28848,-0.57594 1.15399,-1.43938 2.01945,-1.7272 0.86551,-0.28781 3.75047,-0.57563 4.90444,2.59065 z" fill="#58595b" id="path7" style="stroke-width:3.06513"/>
  <path d="m 15.86709,176.15479 c 0.86548,-0.28782 1.44248,-0.57563 2.30796,-1.43908 0.8655,-0.86345 1.15399,-2.01471 0.8655,-3.16628 -0.28852,-1.15127 -1.44248,-2.59035 -3.17346,-2.01472 -2.01949,0.57563 -2.30798,1.43908 -2.59646,4.02973 0,0.86345 -0.2885,2.30253 -1.154,3.4538 -0.57698,0.86375 -1.44248,1.43938 -2.88496,1.7272 -1.154,0.28782 -2.30796,0 -3.17346,-0.86345 -0.86548,-0.57563 -1.44249,-1.43938 -1.73097,-2.87846 -0.28849,-1.43909 -0.28849,-2.30253 0,-2.87847 0,-0.28782 0,-0.28782 -0.28849,-0.28782 l -0.2885,-0.28782 c 0,0 -0.28852,0 -0.28852,-0.28781 0,0 0,-0.28782 0.28852,-0.28782 0.2885,0 3.17346,-1.15126 3.46195,-1.15126 h 0.28849 l 0.2885,0.28781 v 0.28782 c -0.57699,0.28782 -1.4425,0.86345 -2.01947,1.7269 -0.57699,0.57594 -0.57699,1.43938 -0.28849,2.30283 0.28849,1.7269 2.01946,2.01472 2.59644,1.7269 0.57701,-0.28782 1.44248,-0.28782 1.73101,-1.15127 0.28848,-0.57563 0.57697,-2.01471 0.57697,-2.87846 0,-1.43908 0.2885,-2.30253 0.86551,-3.4538 0.57697,-0.86344 1.44245,-1.43938 2.88493,-1.7272 2.59648,-0.57563 5.19295,0.57563 5.76994,3.4541 0.28849,1.7269 0.28849,2.87847 -0.2885,3.74192 0,0.28781 -0.28849,0.57563 0,0.57563 0,0 0.2885,0.28781 0.57699,0.28781 0,0.86345 0,0.86345 0.28852,0.86345 0,0.28782 0,0.28782 -0.28852,0.28782 -0.28849,0 -3.75044,0.57563 -4.03893,0.57563 h -0.2885 z" fill="#58595b" id="path8" style="stroke-width:3.06513"/>
  <path d="m 10.38572,160.32368 c 0.28849,0 5.19295,-0.86345 5.48144,-0.86345 0.57697,0 0.57697,-0.57563 0.57697,-0.86345 v -0.86345 -0.28781 h 0.57702 c 0,0 0.28849,0 0.28849,0.28781 0,0.28782 0,1.15127 0.28849,3.16629 0.2885,2.01471 0.57698,3.16597 0.57698,3.16597 v 0.28782 h -0.57698 l -0.28849,-0.28782 v -0.86344 c 0,-0.28782 -0.28849,-0.86345 -0.86551,-0.86345 -0.28848,0 -4.90442,0.57563 -6.05841,0.86345 l -1.44248,0.28781 c -0.57699,0 -4.32745,0.57563 -4.61595,0.86345 -0.57697,0 -0.57697,0.28782 -0.57697,0.86345 l 0.28848,1.15157 v 0.28782 H 3.46183 3.17333 c 0,-0.28782 0,-1.43939 -0.2885,-3.4541 -0.2885,-2.01472 -0.577,-2.59066 -0.577,-2.87847 0,0 0,-0.28782 0.2885,-0.28782 h 0.577 c 0,0 0.2885,0 0.2885,0.28782 v 0.86375 c 0,0.57564 0.28849,0.86345 0.57697,0.86345 0.28849,0 4.90444,-0.57563 5.19296,-0.57563 z" fill="#58595b" id="path9" style="stroke-width:3.06513"/>
  <path d="m 2.01947,149.67418 v 0.57563 c 0,0.57563 0,2.30253 0.2885,3.16598 0.2885,0.57593 1.73099,1.43938 2.59646,1.7272 0,0 0.28849,0 0.28849,0.28781 v 0.57564 H 4.90443 l -4.03894,-0.86345 c -0.2885,0 -0.2885,-0.28782 -0.2885,-0.28782 0,0 0,-0.28781 0.2885,-0.28781 0.2885,-0.57564 0.57699,-0.86345 0.57699,-1.43939 v -4.31755 -1.15126 c 0,-2.30253 -0.28849,-3.16598 -0.28849,-4.31755 0,-0.28782 -0.2885,-1.15126 -0.577,-1.43908 C 0,141.90253 0,141.61471 0,141.61471 c 0,0 0,-0.28781 0.28849,-0.28781 0.2885,0 3.17346,-0.57564 4.03896,-0.86345 h 0.28848 l 0.2885,0.28781 -0.2885,0.28782 c -0.57697,0.28782 -2.01946,1.15127 -2.30796,1.7269 -0.2885,0.57563 -0.2885,2.59065 -0.2885,3.4541 v 0.57563 l 11.53985,-0.57563 c 1.73097,0 2.01947,-0.28782 2.01947,-0.86345 v -1.15127 h 0.28849 0.57701 c 0,0 0.2885,0 0.2885,0.28782 v 3.16598 c 0,2.30283 0.28848,3.16628 0.28848,3.4541 0,0 0,0.28781 -0.28848,0.28781 H 16.1558 15.86728 v -1.15126 c 0,-0.28782 -0.28849,-0.57563 -0.57699,-0.57563 -0.57697,0 -7.21241,0.28781 -7.50089,0.28781 z" fill="#58595b" id="path10" style="stroke-width:3.06513"/>
  <path fill-rule="evenodd" clip-rule="evenodd" d="m 12.40607,137.29716 c -0.8655,-0.35954 -1.731,-0.71938 -2.0195,-0.86344 l 0.2885,-5.75663 c 0.43276,0 1.29824,-0.21579 2.16373,-0.43188 0.86548,-0.21578 1.73097,-0.43157 2.16372,-0.43157 0.57697,-0.28782 0.86549,0 0.86549,0.57563 v 0.57563 c 0,0.28782 0.2885,0.28782 0.2885,0.28782 H 16.445 c 0,0 0.28848,0 0.28848,-0.28782 0.28849,-0.28781 0.28849,-1.15126 0.28849,-2.87816 0.28852,-2.30283 0.28852,-2.87846 0.28852,-3.16628 0,-0.28782 -0.28852,-0.28782 -0.28852,-0.28782 H 16.445 c -0.28849,0 -0.28849,0.28782 -0.28849,0.28782 v 0.57563 c 0,0.57563 -0.2885,1.15127 -1.15399,1.43908 -0.57699,0.28782 -4.61595,1.43939 -6.34692,1.72721 -0.72125,0.14375 -2.30799,0.57563 -3.89471,1.0072 -1.58673,0.43188 -3.17345,0.86375 -3.89469,1.00751 l -0.28849,0.28781 0.28849,0.28782 c 0.28849,0.28782 0.86549,1.7272 0.86549,2.30284 0,0.28781 0.2885,0.28781 0.2885,0.28781 h 0.28849 c 0.19233,-0.19188 0.38467,-0.12812 0.577,-0.0641 0.0961,0.0319 0.19233,0.0641 0.28848,0.0641 l 5.48144,2.59035 c 0.55709,0.278 1.32331,0.64521 2.11601,1.02528 1.67042,0.80092 3.45827,1.65793 3.65392,1.85318 0.57699,0.28782 0.86547,0.86345 0.86547,1.43908 v 0.57564 h 0.28849 0.28852 0.2885 v -2.30253 c 0,-0.99464 0.13774,-1.71402 0.22286,-2.15878 0.0381,-0.19892 0.0656,-0.34298 0.0656,-0.43187 0,-0.28782 -0.28849,-0.28782 -0.28849,-0.28782 h -0.57701 v 0.28782 0.86345 c 0,0.57593 -0.2885,0.86375 -0.57698,0.86375 h -0.57698 c -0.2885,-0.14406 -1.15399,-0.50391 -2.01947,-0.86375 z m -5.1319,-5.10099 c 1.30084,-0.26575 2.55684,-0.5223 2.82391,-0.65563 v 4.60536 c -0.57697,-0.28782 -5.76993,-2.59034 -6.05841,-2.59034 -0.2885,0 -0.2885,-0.28782 -0.2885,-0.28782 0,-0.28782 0,-0.28782 0.2885,-0.28782 0.15497,-0.15479 1.72493,-0.4754 3.2345,-0.78375 z" fill="#58595b" id="path11" style="stroke-width:3.06513"/>
  <path d="m 13.27025,121.46636 c 0.86551,0 1.73098,0 2.88496,-0.57563 1.154,-0.57563 1.73098,-1.43908 2.01947,-2.59065 0.28852,-1.15127 -0.28849,-2.87816 -2.01947,-3.16598 -2.01945,-0.28782 -2.88496,0.28782 -4.03894,2.59034 -0.2885,0.57564 -1.15398,2.01502 -2.30796,2.87847 -1.15399,0.57563 -2.01947,0.86345 -3.46195,0.57563 -1.15399,-0.28781 -2.01949,-0.86344 -2.59648,-2.01501 -0.57697,-0.86345 -0.57697,-2.01472 -0.57697,-3.16598 0.28849,-1.43939 0.86546,-2.30284 1.15396,-2.59065 v -0.57564 l -0.2885,-0.28781 v -0.28782 c 0,0 0.2885,-0.28781 0.2885,0 0.28852,0 3.46197,0.28782 3.46197,0.28782 v 0.28781 0.28782 c 0,0 0,0.28782 -0.28852,0.28782 -0.57697,0 -1.44245,0.28781 -2.59644,0.86345 -0.57701,0.57593 -1.154,1.15157 -1.44248,2.01501 -0.28849,1.7269 0.86547,2.59035 1.73097,2.87817 0.57698,0 1.44248,0.28812 2.01946,-0.28782 0.57701,-0.57563 1.44249,-1.43908 1.73097,-2.30253 0.57701,-1.15126 1.154,-2.01502 2.30799,-2.59065 0.86548,-0.57563 1.73097,-0.86345 3.17345,-0.57563 2.59648,0.57563 4.32745,2.59065 3.75044,5.46881 0.57701,1.15157 0,2.30283 -0.86547,2.87847 -0.28849,0.28781 -0.28849,0.28781 -0.28849,0.57563 0,0 0,0.28781 0.28849,0.28781 v 0.57564 c 0,0.28781 -0.28849,0.28781 -0.28849,0.28781 -0.28849,0 -3.75047,-1.15126 -3.75047,-1.15126 0,0 -0.28849,0 -0.28849,-0.28782 z" fill="#58595b" id="path12" style="stroke-width:3.06513"/>
  <path d="m 18.17557,100.74207 c 0.86547,0 1.73098,0.28782 2.88496,0 1.15396,-0.28782 2.01947,-1.151266 2.30796,-2.014714 0.2885,-1.151571 0.2885,-2.878467 -1.44248,-3.454099 -1.73097,-0.575633 -2.88497,0 -4.32745,1.726896 -0.57699,0.575632 -1.44248,1.727203 -2.88496,2.302835 -0.86548,0.575633 -2.01947,0.287816 -3.17347,0 -1.15396,-0.287816 -2.01945,-1.151571 -2.30794,-2.590651 -0.2885,-1.151264 -0.2885,-2.014713 0,-3.165977 0.57697,-1.439387 1.15398,-2.015019 1.44248,-2.302835 0.28849,-0.287816 0.28849,-0.287816 0,-0.575632 l -0.2885,-0.287816 V 90.09226 h 0.2885 c 0.28849,0 3.17345,0.863449 3.46194,0.863449 v 0.287816 0.287816 c 0,0 0,0.287816 -0.28849,0.287816 -0.57701,0 -1.44248,0 -2.59647,0.575632 -0.86548,0.287816 -1.154,0.863448 -1.73097,1.727203 -0.57699,1.726897 0.57697,2.878161 1.15399,2.878161 0.57698,0.287816 1.44248,0.287816 2.01946,0 0.57698,-0.287816 1.73098,-1.151264 2.01947,-2.014713 0.86549,-1.151264 1.44248,-1.727203 2.59647,-2.302835 2.01946,-0.287816 2.88497,-0.287816 4.32745,0 2.59647,0.863755 4.03896,3.166284 2.88496,6.044751 -0.57701,1.726894 -1.44248,2.590344 -2.30799,3.165974 l -0.28848,0.28782 c 0,0 0,0.28782 0.28848,0.57563 0.2885,0.28812 0.2885,0.28812 0,0.57594 0,0.28782 -0.28848,0.28782 -0.28848,0 -0.28849,0 -3.46194,-1.7272 -3.75044,-1.7272 0,0 -0.28852,0 0,-0.28782 z" fill="#58595b" id="path13" style="stroke-width:3.06513"/>
  <path d="m 16.44465,80.593716 -0.28848,0.575632 c -0.28849,0.575633 -0.8655,2.01502 -1.154,2.878468 0,0.863448 0.86551,2.014712 1.44248,2.878161 v 0.288122 l -0.28848,0.287817 h -0.28849 l -3.17345,-2.590652 -0.28852,-0.287816 0.28852,-0.287816 c 0.57697,-0.287816 0.86546,-0.575632 1.15396,-1.151264 0.57701,-1.151571 1.15398,-1.727203 2.01949,-3.741916 l 0.57697,-1.151264 c 1.154,-2.01502 1.4425,-2.878468 1.73098,-3.741916 0.28849,-0.287816 0.28849,-1.151265 0.28849,-1.727203 v -0.575632 h 0.28849 c 0.28852,0 2.88496,0.863754 4.03896,1.15157 0,0 0.2885,0 0,0.287817 v 0.575632 h -0.28849 c -0.57699,0 -2.30799,0 -2.88496,0.575632 -0.57699,0.287816 -1.44249,2.014713 -1.73097,2.878467 l -0.2885,0.287816 10.38587,5.180997 c 1.44245,0.863448 2.01947,0.863448 2.30796,0.287816 l 0.57709,-1.151571 h 0.28844 l 0.28843,0.288122 c 0,0 0.28843,0 0,0.287817 0,0.287816 -0.57687,0.863448 -1.44245,2.87816 -0.86551,2.01502 -1.44248,2.878468 -1.44248,3.166284 h -0.2885 L 27.696,88.65318 v -0.287816 l 0.57701,-1.151265 c 0.2885,-0.288122 0,-0.863754 -0.28849,-0.863754 -0.57701,-0.287817 -6.34695,-3.165977 -6.63543,-3.453793 z" fill="#58595b" id="path14" style="stroke-width:3.06513"/>
  <path d="m 23.94501,68.504827 c -0.57701,-0.287816 -0.8655,-0.575631 -1.44248,0 l -0.28849,0.863449 H 21.92552 L 21.63703,69.08046 v -0.287817 c 0,-0.287816 0.8655,-0.863447 2.01949,-2.590651 0.57699,-1.726896 1.15396,-2.590344 1.44245,-2.590344 h 0.28852 0.2885 v 0.287816 l -0.57702,0.863448 c -0.28849,0.575632 -0.28849,1.151264 0,1.43908 0.28852,0.287816 1.15399,0.863754 2.30799,1.727204 l 2.30795,1.43908 c 0.8655,0.575632 2.30808,1.43908 2.88494,1.726896 0.86559,0.575939 1.73088,0.863755 2.59647,0.863755 1.15403,0 2.30805,-0.863755 2.88491,-1.727203 0.57716,-0.863448 0.86558,-2.014713 0.86558,-2.878162 -0.28842,-1.15157 -0.86558,-2.302834 -2.30804,-3.166282 l -3.17333,-2.302836 c -1.44245,-0.863448 -3.17352,-2.014712 -3.46201,-2.014712 -0.577,-0.287816 -1.15399,-0.287816 -1.15399,0.287816 l -0.86551,0.575632 h -0.28848 l -0.57698,-0.287816 v -0.287816 c 0,-0.287816 0.86546,-0.863448 1.44248,-2.014714 0.86548,-1.15157 1.15396,-1.727202 1.15396,-1.727202 0,-0.287816 0.28852,0 0.28852,0 l 0.28849,0.287816 c 0,0 0.28849,0 0,0.287816 l -0.57701,0.575938 c -0.57698,0.575632 4e-5,1.151266 0.28852,1.151266 0.28849,0.287816 2.59642,2.014712 2.88485,2.014712 0.28873,0.287816 3.46207,2.302834 4.03892,2.878468 1.44276,1.151264 2.30805,2.302528 2.30805,3.741914 0.28843,1.151265 -0.28844,2.590346 -1.15402,4.029426 -0.57686,0.863755 -1.44246,1.727203 -2.30775,2.302836 -1.15401,0.863448 -2.30804,0.863448 -3.75049,0.575632 -0.86559,-0.287816 -2.30808,-1.151265 -4.61603,-2.590345 z" fill="#58595b" id="path15" style="stroke-width:3.06513"/>
  <path fill-rule="evenodd" clip-rule="evenodd" d="m 36.35035,53.681226 c 0.6492,0.575632 1.29838,1.151264 1.44245,1.295326 l 1.44245,1.151264 4.90452,4.89318 c 0.28843,0.287816 0.28843,0.575632 0,0.863448 l -0.86529,0.863449 v 0.287816 l 0.57687,0.575632 h 0.28842 c 0.28843,-0.287816 0.86559,-0.863448 2.01962,-2.302529 0.62253,-0.4141 1.54329,-1.423755 2.22621,-2.17226 0.26636,-0.292108 0.49655,-0.544368 0.65869,-0.706207 0.11587,-0.153871 0.25716,-0.328583 0.41502,-0.522912 1.0213,-1.259771 2.71969,-3.354483 2.46989,-6.097165 -0.28844,-2.302835 -1.15403,-3.741916 -2.88491,-5.468812 -2.01961,-1.727203 -4.03893,-2.302835 -5.76981,-2.015019 -2.59647,0.287816 -4.32767,2.015019 -6.34697,4.029731 -0.25931,0.258697 -0.51892,0.575633 -0.8043,0.924752 -0.34973,0.427278 -0.73869,0.902681 -1.21532,1.378084 -0.44077,0.43954 -0.83954,0.795402 -1.18008,1.099464 -0.5508,0.491646 -0.94957,0.847202 -1.12796,1.203064 v 0.287816 l 0.28874,0.287817 h 0.28842 l 0.86559,-0.863449 c 0.28844,-0.575632 0.57687,-0.575632 0.86529,-0.287816 0.14438,0.144061 0.79356,0.719693 1.44246,1.295326 z m 8.94344,4.173486 c -1.15402,-0.863448 -3.7505,-3.165976 -4.03892,-3.454099 l -0.8656,-0.863448 -2.8849,-2.878161 c -0.57686,-0.287816 -0.57686,-0.575632 -0.57686,-0.863448 0.14406,-0.144062 0.28842,-0.359847 0.4328,-0.575939 0.14406,-0.215785 0.28842,-0.431572 0.43249,-0.575633 1.15401,-1.43908 2.88521,-2.302528 4.61609,-2.302528 1.44246,0.287816 3.46176,0.863448 4.61579,2.014712 1.44244,1.151265 2.30804,2.878468 2.59647,4.317548 0.28873,2.01502 -0.28843,3.741916 -1.44246,4.89318 -0.57685,0.575633 -1.15401,0.863449 -1.73088,0.863449 -0.57716,0 -0.86558,-0.287816 -1.15402,-0.575633 z" fill="#58595b" id="path16" style="stroke-width:3.06513"/>
  <path d="m 55.96873,41.16046 c 0,0.287816 3.46207,3.741916 3.75051,4.029732 0.57716,0.575632 0.86559,0.287816 1.15401,0 l 0.57687,-0.575632 h 0.28873 l 0.28843,0.287816 v 0.287816 c -0.28843,0.287816 -0.8656,0.575632 -2.30804,2.014712 -1.73089,1.43908 -2.30805,2.01502 -2.30805,2.302836 h -0.28843 l -0.86529,-0.287816 v -0.288123 l 0.57686,-0.575633 c 0.28843,-0.287816 0.57686,-0.575632 0.28843,-1.151264 -0.28843,-0.287816 -3.17333,-3.741916 -4.03893,-4.605364 l -0.86559,-1.151264 c -0.28843,-0.287816 -2.88491,-3.166284 -3.17333,-3.4541 -0.28843,-0.287816 -0.57687,-0.287816 -1.15403,0 l -0.86528,0.863448 h -0.28875 l -0.28842,-0.287816 v -0.287816 c 0.28842,-0.287816 1.15402,-0.863448 2.59648,-2.302528 1.44245,-1.439388 2.01961,-1.727204 2.30804,-2.01502 h 0.28842 l 0.28844,0.287816 v 0.287816 l -0.57686,0.575938 c -0.28843,0.287818 -0.57716,0.575634 -0.28843,0.86345 0,0.287816 3.17333,3.741914 3.46176,4.029732 z" fill="#58595b" id="path17" style="stroke-width:3.06513"/>
  <path fill-rule="evenodd" clip-rule="evenodd" d="m 72.98943,27.631969 c -1.73088,-2.302652 -4.03894,-3.166161 -6.05824,-3.454008 -2.30804,0 -3.7505,0.863509 -5.19295,1.72702 -1.44245,1.151325 -3.17364,2.878344 -3.46207,5.756628 -0.28844,2.590651 0.57686,4.317548 1.44246,5.468812 2.01961,2.590652 4.61608,3.4541 6.34697,3.4541 2.01931,-0.287816 3.75049,-0.863448 4.90452,-1.726897 2.59647,-2.015019 3.46176,-4.029731 3.46176,-6.332567 0,-2.014712 -0.57687,-3.453885 -1.44245,-4.893088 z m -11.25119,7.195924 c -1.15403,-1.439081 -1.73119,-3.741916 -1.44245,-5.468905 0.39724,-1.387586 1.0682,-2.092598 1.44766,-2.491095 0.17134,-0.180139 0.28322,-0.297656 0.28322,-0.387249 1.73088,-1.151327 6.05824,-0.575663 8.6547,3.16619 1.15403,1.439143 3.17364,5.756691 -0.28842,8.347342 -1.44246,1.151264 -5.48138,1.439081 -8.65471,-3.166283 z" fill="#58595b" id="path18" style="stroke-width:3.06513"/>
  <path fill-rule="evenodd" clip-rule="evenodd" d="m 83.08659,29.071417 c -0.28843,-0.287816 -1.44246,-2.302651 -2.01931,-3.454008 l -0.28873,-1.439172 c 0.28873,0 0.57716,-0.287847 0.57716,-0.287847 0.65257,-0.434053 1.14114,-0.213517 1.7131,0.04463 0.18667,0.0842 0.38192,0.172415 0.59495,0.243219 v 0 c 0.57685,0.287846 1.73088,0.863509 2.01931,1.151325 0.28842,0.287847 1.73088,1.439204 2.30804,1.72702 v 0 c 0.57686,0.287847 1.15402,0.575663 1.44245,0.575663 l 1.73088,-0.863479 c 0.72123,-0.287847 1.15403,-0.503724 1.44245,-0.647632 0.28874,-0.143939 0.4328,-0.215877 0.57717,-0.215877 v -0.287848 l -0.28843,-0.287847 h -0.28874 c -0.28842,0.287847 -0.86528,0.287847 -1.44245,0.287847 -0.16184,-0.08083 -0.43769,-0.2297 -0.75677,-0.402084 -0.81779,-0.441532 -1.92062,-1.037088 -2.12812,-1.037088 -0.28844,0 -2.59648,-1.151326 -2.88491,-1.439172 -0.57687,-0.287847 -1.15403,-0.287847 -1.73088,-0.287847 2.01931,-1.439173 2.88489,-3.166161 0.86528,-5.468843 -0.28843,-0.86351 -1.15403,-1.439173 -2.01931,-1.72702 -1.15402,-0.287816 -2.59648,-0.287816 -4.03893,0.575663 l -3.46207,1.72702 c -1.73088,0.863509 -2.59646,1.151325 -2.59646,1.151325 v 0.287847 l 0.28842,0.575663 h 0.28874 l 0.86528,-0.287816 c 0.28844,-0.287847 0.8656,0 1.15402,0.575662 l 2.59648,5.181027 c 1.15403,1.72702 2.01962,3.454008 2.88491,5.468844 0.28843,0.287877 0,0.575694 -0.28844,0.863509 l -0.57685,0.287817 v 0.287816 l 0.28842,0.575632 h 0.28843 c 0.28844,-0.287817 0.57687,-0.575632 2.59648,-1.43908 1.00965,-0.431878 1.58683,-0.719603 1.94728,-0.899495 0.36077,-0.179893 0.50483,-0.251863 0.6492,-0.251863 v -0.287816 l -0.28843,-0.575693 h -0.28844 l -0.86558,0.575693 c -0.28843,0 -0.57718,-0.287846 -0.8656,-0.575692 z m -2.16368,-5.324935 c -0.14436,0.07197 -0.28843,0.143908 -0.43279,0.143908 l -2.88491,-5.756689 v -0.575663 c 0,0 0.28843,-0.287846 0.86559,-0.287846 0.86529,-0.575663 2.01932,-0.86348 2.88491,-0.575663 0.8656,0.287847 1.44245,0.863509 2.0193,1.727019 0.28875,0.863509 0.8656,3.741854 -2.0193,5.181026 -0.14436,0 -0.28843,0.07193 -0.4328,0.143908 z" fill="#58595b" id="path19" style="stroke-width:3.06513"/>
  <path d="m 90.87632,12.37695 c -0.28873,-0.575662 -0.57716,-0.86351 -1.15403,-0.575662 l -0.86558,0.287816 H 88.56828 L 88.27985,11.51344 c 0,0 0,-0.287816 0.28843,-0.287816 0.28843,0 1.15401,-0.287847 3.17333,-1.151356 1.73119,-0.575663 2.59647,-1.151326 2.88521,-1.151326 h 0.28843 l 0.28843,0.86351 v 0.287816 l -0.8656,0.287846 c -0.57685,0.287816 -0.86528,0.575663 -0.57685,1.151326 0,0.287848 0.57685,1.439173 0.86559,2.590529 l 0.57686,2.302681 c 0.28843,1.151327 0.86559,2.590499 1.15402,3.166162 0.28843,0.863509 0.86529,1.72702 1.73088,2.302682 1.15403,0.575663 2.30805,0.575663 3.17364,0.287847 0.86529,-0.287847 2.01931,-1.151357 2.30774,-2.014867 0.57717,-1.151325 0.57717,-2.30265 0,-3.741824 l -1.15402,-3.741853 C 101.55065,10.937777 100.97349,9.210758 100.68506,8.922942 100.39663,8.347249 100.1082,8.059433 99.53103,8.347249 L 98.66575,8.635096 H 98.37701 L 98.08858,8.059433 V 7.771586 c 0.28843,0 1.15403,-0.287816 2.59648,-0.86351 1.15402,-0.575663 2.01961,-0.863479 2.01961,-0.863479 h 0.28843 l 0.28843,0.575663 v 0.287816 l -0.86559,0.287848 c -0.86529,0.287846 -0.57686,0.863509 -0.57686,1.151325 0,0.287847 1.15402,3.166191 1.15402,3.454039 0,0.287816 1.44246,3.741853 1.44246,4.605362 0.57685,1.72699 0.28843,3.166162 -0.28843,4.605334 -0.28843,0.86351 -1.44246,1.72702 -2.88491,2.302682 -0.86559,0.287847 -2.30804,0.575663 -3.17364,0.575663 -1.44245,0 -2.59647,-0.575663 -3.46176,-1.726988 C 94.04965,21.299832 93.4728,20.148474 92.6072,17.27013 Z" fill="#58595b" id="path20" style="stroke-width:3.06513"/>
  <path d="m 123.47586,9.498513 c 0,-0.575693 -1.15402,-5.756689 -1.15402,-6.044536 0,0.287847 -1.73088,6.908045 -1.73088,7.483708 -0.28843,0.863511 -1.44245,6.332353 -1.44245,6.6202 0,0.287816 -0.28843,0.575663 -0.28843,0.575663 0,0 -0.28874,0 -0.28874,-0.287847 0,0 -4.03893,-6.332353 -4.32735,-6.6202 -0.57686,-0.863479 -3.46207,-5.181027 -3.7505,-5.468843 0,0.287816 0.86559,5.75669 0.86559,6.044538 0,0.287816 0.57686,3.741822 1.15402,5.181026 0.28843,0.863479 0.57686,1.726988 1.44246,1.726988 l 0.86559,-0.287816 h 0.28843 v 0.575663 c 0,0 0,0.287816 -0.28843,0.287816 -0.28874,0 -0.86559,0 -2.30805,0.287847 -1.73118,0.287846 -2.59647,0.575662 -2.8849,0.575662 -0.28874,0 -0.28874,0 -0.28874,-0.287816 v -0.575693 -0.287816 l 0.8656,-0.287847 c 0.57686,0 0.86559,-0.863509 0.86559,-1.726988 0,-1.439204 -0.86559,-6.6202 -0.86559,-7.195893 L 109.6282,6.044474 c 0,-0.863478 -0.28874,-1.151325 -1.15402,-1.151325 l -0.8656,0.287847 h -0.28843 V 4.605302 l 0.28843,-0.287816 c 0.28843,0 0.8656,0 2.88491,-0.575662 1.15402,-0.287847 1.73118,-0.287847 1.73118,-0.287847 0.28843,0 0.28843,0 0.57686,0.287847 1.15403,1.726988 5.48138,8.347188 6.34698,10.074206 0,-0.287846 0.86528,-4.317517 1.15402,-5.468873 0.28843,-0.863509 1.44245,-5.756687 1.44245,-6.044521 0,-0.287835 0.28843,-0.287835 0.86529,-0.287835 3.17364,-0.575672 3.7505,-0.863507 4.03923,-0.863507 l 0.28843,0.287835 v 0.575672 0.287835 l -0.86559,0.287834 c -0.57686,0 -0.57686,0.57566 -0.57686,0.863507 0,0.575663 0.86529,4.605364 0.86529,5.181027 l 0.28873,1.439172 c 0.28843,1.151325 0.86529,4.317517 0.86529,4.605364 0.28843,0.863509 0.28843,1.151325 0.86559,1.151325 l 1.15403,-0.287816 h 0.28842 v 0.575663 0.287817 c -0.28842,0 -1.15402,0.287847 -3.17333,0.575693 -2.59647,0.287816 -3.46207,0.575663 -3.7505,0.575663 0,0 -0.28873,0 -0.28873,-0.287847 v -0.575662 -0.287847 h 1.44276 c 0.28843,0 0.57686,-0.287817 0.57686,-0.86348 0,-0.287847 -0.57686,-3.166191 -0.8656,-4.893211 z" fill="#58595b" id="path21" style="stroke-width:3.06513"/>
  <path d="m 155.21073,8.635034 c 0,-0.575662 0.28843,-6.044521 0.28843,-6.044521 -0.28843,0.287835 -3.17334,6.332368 -3.46177,6.908031 l -2.8849,5.756689 c 0,0.287847 -0.28874,0.575663 -0.57716,0.575663 0,0 -0.28843,3e-5 -0.28843,-0.287816 0,0 -2.59648,-6.908046 -2.59648,-7.195862 -0.28843,-1.151356 -2.01962,-6.04454 -2.30804,-6.332374 0,0.287834 -0.28843,5.756681 -0.28843,6.044528 0,0.287846 -0.28843,4.029701 -0.28843,5.181026 0,0.86351 0.28843,1.727019 0.86528,1.727019 h 0.8656 c 0,0 0.28843,0 0.28843,0.287816 v 0.575663 c 0,0 0,0.287846 -0.28843,0.287846 -0.28843,0 -0.8656,0 -2.30805,-0.287846 h -2.8849 c -0.28843,0 -0.28843,3e-5 -0.28843,-0.287816 v -0.575663 h 0.86559 c 0.86529,0 0.86529,-0.863509 1.15403,-1.439172 0.57685,-1.727019 0.86528,-6.908047 0.86528,-7.483709 l 0.28843,-3.741858 c 0,-0.863506 0,-1.151341 -0.86528,-1.439174 h -0.8656 c 0,0 -0.28843,0 -0.28843,-0.287835 V 0 h 0.28843 c 0.28843,0 0.8656,0 3.17333,0.287834 h 2.01962 c 0.28843,0 0.28843,0 0.57686,0.287835 0.57716,2.014844 3.46207,9.210721 4.03923,11.225557 0.28843,-0.287848 2.01931,-3.741854 2.59648,-5.181028 0.28843,-0.863509 2.59617,-5.181026 2.59617,-5.756694 0,-0.287835 0.28873,-0.287835 0.86559,-0.287835 3.17364,0.287835 3.7505,0 4.03893,0 v 0.287835 0.575668 c 0,0 0,0.287837 -0.28843,0.287837 h -0.8656 c -0.57685,0 -0.57685,0.287835 -0.57685,0.863504 0,0.575679 -0.28843,4.893196 -0.28843,5.468859 v 1.439172 c 0,1.151356 -0.28874,4.317517 -0.28874,4.89318 0,0.863509 0.28874,1.151356 0.57717,1.151356 h 1.15402 v 0.287816 0.575694 c 0,0 0,0.287816 -0.28843,0.287816 -0.28874,0 -1.15402,0 -3.17364,-0.287816 h -3.17333 c 0,0 -0.28843,0 -0.28843,-0.287848 V 15.54308 c 0,0 0,-0.287847 0.28843,-0.287847 h 1.44245 c 0.28843,0 0.57686,0 0.57686,-0.863509 0,-0.287816 0.28843,-3.166162 0.28843,-4.89318 z" fill="#58595b" id="path22" style="stroke-width:3.06513"/>
  <path d="m 165.59724,4.317517 c 0.28843,-0.575693 0,-1.151356 -0.57686,-1.151356 l -0.86559,-0.287832 c 0,0 -0.28843,0 0,-0.287835 V 2.014826 c 0,0 0,-0.287834 0.28843,0 0.28843,0 1.15402,0.287834 3.17364,0.863503 1.73088,0.287832 2.8849,0.287832 3.17333,0.287832 0,0 0.28843,0 0,0.287847 V 4.02967 c 0,0 0,0.287847 -0.28843,0 l -0.86559,-0.287846 c -0.57686,0 -1.15402,0.287846 -1.15402,0.575693 0,0.287816 -0.28843,1.439172 -0.57686,2.590497 l -0.57717,2.878346 c -0.28843,1.151356 -0.57686,2.590529 -0.57686,3.166192 0,0.863509 -0.28843,2.014834 0.28843,2.878344 0.28843,1.151326 1.44246,1.72702 2.30805,2.014836 0.86559,0.287846 2.30805,0 3.17333,-0.287816 0.8656,-0.575694 1.73119,-1.72702 2.01962,-3.454039 l 0.86559,-3.741855 c 0.28843,-1.726988 0.57686,-3.454008 0.57686,-4.02967 0,-0.575663 -0.28843,-1.151356 -0.57686,-1.151356 L 174.54069,4.89318 c 0,0 -0.28843,0 0,-0.287847 V 4.02967 c 0,0 0,-0.287846 0.28843,0 0.28843,0 1.15402,0.287847 2.59647,0.575663 1.44246,0.287847 2.01962,0.287847 2.30805,0.287847 0.28843,0 0.28843,0 0.28843,0.287816 v 0.575693 c 0,0 0,0.287816 -0.28843,0.287816 l -0.86559,-0.287816 c -0.86529,-0.287847 -0.86529,0.287816 -1.15403,0.575663 0,0.287816 -0.57685,3.166192 -0.86528,3.454008 0,0.287846 -0.8656,4.029701 -1.15403,4.89318 -0.57716,1.72702 -1.15402,2.878376 -2.59647,3.741854 -1.15402,0.575694 -2.59648,0.86351 -4.03893,0.575694 -1.15402,-0.287847 -2.30805,-0.575694 -2.8849,-1.151356 -1.15403,-0.86351 -1.73119,-2.014836 -2.01962,-3.454008 0,-0.86351 0,-2.302682 0.57686,-5.181027 z" fill="#58595b" id="path23" style="stroke-width:3.06513"/>
  <path d="m 188.96521,9.210881 -0.57716,-0.287847 c -0.57686,-0.287846 -2.01931,-0.863509 -3.17334,-0.863509 -0.86559,0 -2.01961,1.151356 -2.59647,1.727019 h -0.28843 L 182.04138,9.498697 V 9.210881 l 2.30774,-3.166192 c 0,-0.287847 0.28874,-0.287847 0.28874,-0.287847 l 0.28842,0.287847 c 0.28843,0.575663 0.57686,0.863509 1.15403,1.151325 1.15371,0.287848 2.01931,0.863511 3.75019,1.439174 l 1.15402,0.287846 c 2.30805,0.86351 3.17364,1.151356 4.03893,1.439172 h 1.73119 0.57686 v 0.287847 c 0,0.287816 -0.57686,3.166161 -0.8656,4.029671 0,0 0,0.287846 -0.28843,0.287846 h -0.57686 v -0.287846 c 0,-0.575663 -0.28843,-2.302682 -0.86559,-2.878346 -0.57686,-0.575662 -2.30805,-1.151325 -2.8849,-1.439172 l -0.57686,-0.287816 -3.7505,10.937716 c -0.57717,1.439174 -0.57717,2.014836 0,2.302683 l 1.15402,0.287816 v 0.287847 l -0.28873,0.287816 c 0,0 0,0.287846 -0.28843,0 -0.28843,0 -0.8656,-0.287816 -2.88491,-1.151326 -2.01961,-0.863509 -2.8849,-0.863509 -3.17333,-1.151325 0,0 -0.28874,-3.1e-5 0,-0.287847 l 0.28843,-0.575664 h 0.28843 l 1.15402,0.287818 c 0.28843,0.287846 0.8656,0 0.8656,-0.287818 0,-0.287846 2.30773,-6.332382 2.59616,-6.908045 z" fill="#58595b" id="path24" style="stroke-width:3.06513"/>
  <path d="m 201.94728,22.451004 c 0,0.287846 -2.30805,4.605364 -2.30805,4.89321 -0.28843,0.575663 0,0.863479 0.57686,1.151326 l 0.8656,0.287846 v 0.287816 l -0.28843,0.575694 h -0.28843 c -0.28874,0 -0.8656,-0.575694 -2.88521,-1.439203 -2.01931,-0.863479 -2.88491,-1.151325 -2.88491,-1.439172 v -0.287816 -0.287847 h 0.28843 l 0.8656,0.287847 c 0.28843,0.287816 0.86559,0.287816 1.15402,0 0.28843,-0.287847 2.30804,-4.317517 2.59647,-5.468873 l 0.57686,-1.439174 c 0.28874,-0.575662 1.73119,-4.02967 2.01962,-4.317517 0.28843,-0.575663 0,-0.863509 -0.57686,-1.151325 l -1.15402,-0.575694 v -0.287816 l 0.28843,-0.575662 h 0.28843 c 0.28843,0 1.15402,0.575662 3.17333,1.439172 1.73119,0.863478 2.59648,1.151325 2.88521,1.151325 v 0.287847 l -0.28873,0.575662 h -0.28843 l -0.86529,-0.287846 c -0.28874,-0.287816 -0.8656,-0.287816 -0.8656,0.287846 0,0.287848 -2.30804,4.317518 -2.30804,4.605364 z" fill="#58595b" id="path25" style="stroke-width:3.06513"/>
  <path d="m 210.60169,23.890298 c -2.01962,3.166162 -3.46207,5.75669 -3.7505,6.332352 -0.57717,0.863634 -0.57717,1.439266 0,2.014898 l 0.57686,0.287816 c 0.28873,0 0,0.287816 0,0.287816 l -0.28843,0.287816 c 0,0 0,0.287816 -0.28843,0 -0.28843,0 -1.15402,-0.863448 -2.01962,-1.151264 -0.57686,-0.287816 -1.73088,-1.151264 -2.01931,-1.151264 v -0.28797 l 0.28843,-0.575694 h 0.28843 l 0.57716,0.287846 c 0.57686,0.287848 0.86529,0 1.73089,-1.151325 0.28842,-0.287847 2.01961,-2.878375 3.75049,-5.75672 l 1.44246,-2.302681 c 0.57685,-1.151327 0.57685,-2.302652 -0.28843,-2.878346 l -0.57717,-0.287816 v -0.287846 h 0.57717 0.28843 c 0,0 0.28842,0.287846 0.57685,0.287846 0.28874,0.287816 0.8656,0.575663 1.73119,1.151326 0.28843,0.287846 0.57686,0.287846 0.86529,0.575662 0.28873,0.287847 0.28873,0.287847 0.57716,0.287847 0.28843,0 0.28843,0.287847 0.28843,0.575663 0,0.287846 0.8656,6.908046 0.8656,7.771556 0,0.575662 0.86528,5.756628 0.86528,6.33226 l 1.15403,-2.014712 c 0.86559,-1.726896 1.44245,-2.59056 2.01961,-3.454039 0.28843,-0.575693 1.44246,-2.590528 1.44246,-2.878375 0.28842,-0.575662 0,-1.151326 -0.57717,-1.439173 l -0.57686,-0.287816 v -0.287847 l 0.28843,-0.287816 c 0,0 0,-0.287846 0.28843,0 0.28874,0 0.86559,0.575663 2.01962,1.439172 1.15402,0.575664 1.44245,0.86348 1.73088,1.151327 0.28843,0 0,0.287847 0,0.287847 l -0.28843,0.287816 c 0,0 -0.28843,0.287846 -0.28843,0 l -0.28843,-0.86351 c -0.28873,-0.287816 -0.86559,0 -1.15402,0.575694 -0.8656,1.151325 -2.88491,4.029824 -4.03893,6.044536 l -2.88521,4.89318 c -0.28843,0.287816 -0.28843,0.575632 -0.57686,0.287816 -0.28843,-0.287816 -0.28843,-0.575632 -0.57686,-0.575632 0,-0.287816 -0.28873,-2.015019 -0.57716,-4.029732 -0.28843,-2.302528 -0.57686,-4.89318 -0.57686,-5.468843 0,-0.287846 -0.86559,-5.756689 -0.86559,-6.332352 z" fill="#58595b" id="path26" style="stroke-width:3.06513"/>
  <path d="m 226.18176,38.570114 c -0.86559,0.863448 -2.01961,2.590346 -2.30804,2.878162 -0.57686,0.863448 -0.57686,1.439386 -0.28843,1.727202 l 1.15402,1.151264 c 0.28843,0.287818 1.15402,0.86345 1.44245,1.151266 0.28843,0.287816 1.15403,0.575632 1.73088,0.575632 0.57717,0 2.30805,-0.287816 2.88491,-0.575632 h 0.28873 v 0.287816 0.287816 l -2.88521,1.727202 h -0.57685 c 0,0 -0.57717,-0.287816 -1.44246,-1.15157 -1.15402,-0.863448 -2.8849,-2.30253 -5.48138,-4.605364 -0.57716,-0.575632 -1.15402,-0.863448 -1.44245,-1.151264 -0.28873,-0.287816 -0.57716,-0.287816 -0.86559,-0.575632 v -0.287816 l 0.28843,-0.287818 h 0.28843 l 0.57716,0.575634 c 0.86529,0.575632 0.86529,0.575632 1.44245,0 l 4.61579,-5.468814 c 1.15402,-1.43908 2.88521,-3.454098 2.88521,-3.741914 0.28843,-0.575634 0.28843,-0.86348 -0.28874,-1.151327 l -0.28843,-0.575663 v -0.287816 l 0.28843,-0.575693 h 0.28874 c 0.28843,0.287847 0.86529,0.863509 2.30774,2.014865 l 0.57716,0.287818 c 0.86529,0.575632 4.61579,3.741914 5.19295,4.317546 l 0.57686,0.575634 v 0.287816 c 0,0.287816 -1.44245,3.166282 -1.44245,3.166282 0,0 0,0.287816 -0.28843,0 h -0.28843 V 38.85793 c 0,-0.287816 0,-2.878466 -0.28873,-3.454098 -0.28843,-0.575634 -0.57686,-1.151266 -0.86529,-1.439082 l -2.59648,-2.015018 -4.03892,4.89318 c 0.57685,0.287816 1.73088,1.439386 2.01931,1.439386 0.28843,0.287816 0.86559,0.287816 1.15402,0 0.28843,0 0.86559,-0.287816 1.15402,-0.575938 h 0.28843 l 0.28843,0.288122 v 0.287816 c -0.28843,0.287816 -1.15372,1.43908 -1.44245,1.726898 -0.57686,0.575632 -1.15402,1.43908 -1.44245,2.014712 h -0.28843 l -0.28843,-0.287816 v -0.287816 c 0.28843,-0.287816 0.28843,-0.863448 0.28843,-1.151264 0,-0.575634 0,-0.86345 -0.28843,-1.151266 -0.57717,-0.575632 -1.44245,-1.151264 -1.73119,-1.727202 z" fill="#58595b" id="path27" style="stroke-width:3.06513"/>
  <path d="m 239.16414,45.478008 c -2.59648,2.59065 -4.90452,4.605364 -5.19295,5.180996 -0.8656,0.863448 -0.8656,1.43908 -0.28843,2.015018 l 0.28843,0.287816 v 0.287816 l -0.28843,0.287816 h -0.28874 c -0.28843,-0.287816 -0.86528,-1.151264 -1.44245,-1.727202 -0.28843,-0.287816 -1.44245,-1.43908 -1.44245,-1.726896 v -0.287816 l 0.28843,-0.287816 h 0.28873 l 0.57686,0.575632 c 0.28843,0.287816 0.8656,0.287816 2.01962,-0.575632 0.28843,-0.287816 2.59647,-2.302836 5.19264,-4.605364 l 2.01962,-2.014714 c 0.86559,-0.863754 1.15402,-2.015018 0.57686,-2.878466 l -0.57686,-0.575634 v -0.287816 l 0.28843,-0.287816 h 0.28843 c 0,0 0.28873,0.287816 0.28873,0.575632 0.28843,0.287816 0.57686,0.86345 1.15403,1.439082 l 0.57686,0.575632 0.28842,0.287816 c 0.28843,0.287816 0.28843,0.287816 0.28843,0.575632 0,0.287816 -0.86528,6.9082 -1.15371,7.771648 0,0.575632 -0.8656,5.756628 -0.8656,6.33226 l 1.73088,-1.43908 c 1.44246,-1.439082 2.30805,-2.014714 2.88491,-2.878468 l 2.30804,-2.302528 c 0.28843,-0.575632 0.28843,-1.151266 -0.28843,-1.439082 l -0.57716,-0.575632 v -0.287816 l 0.28874,-0.288122 h 0.28842 c 0.28843,0.288122 0.57686,0.863754 1.73089,1.727202 l 1.44245,1.439082 v 0.287816 l -0.28843,0.287816 h -0.28843 l -0.28843,0.287816 c -0.28873,-0.287816 -0.57716,-0.287816 -1.44245,0.287816 -1.15402,0.863754 -4.03893,3.166284 -5.48169,4.605364 l -4.03892,4.029732 c -0.28843,0.287816 -0.57686,0.287816 -0.57686,0.287816 -0.28843,-0.287816 -0.28843,-0.575632 -0.28843,-0.863448 0,-0.287816 0.28843,-2.014714 0.57686,-4.029732 0.28843,-2.30253 0.57716,-4.89318 0.86559,-5.468812 0,-0.287816 0.86529,-5.75663 0.86529,-6.332262 z" fill="#58595b" id="path28" style="stroke-width:3.06513"/>
  <path d="m 247.24107,61.884444 v 0 c -0.57685,0.575632 -1.15402,1.151265 -1.44245,2.302529 -0.57686,1.151571 -0.57686,2.302835 0.28843,3.166284 0.57717,0.863448 2.30805,1.726896 3.7505,0.863448 1.73119,-1.151265 1.73119,-2.302529 0.86559,-4.605364 -0.28843,-0.575632 -0.57686,-2.302529 -0.28843,-3.741609 0,-0.863755 0.86529,-2.01502 1.73088,-2.590652 0.8656,-0.575632 2.01962,-0.863448 3.46207,-0.575632 1.15403,0.287816 2.01931,0.863448 2.59648,1.726897 0.86529,1.151264 1.15402,2.015019 1.15402,2.590651 0,0.287816 0.28843,0.287816 0.28843,0.287816 h 0.28843 c 0,0 0.28843,0 0.28843,0.287816 0,0 0,0.287816 -0.28843,0.287816 -0.28843,0.287816 -2.59648,2.302529 -2.59648,2.302529 h -0.28842 -0.28843 v -0.287816 c 0.28843,-0.575632 0.86528,-1.439081 1.15371,-2.302529 0.28874,-0.863448 0,-1.43908 -0.57686,-2.302835 -1.15402,-1.439081 -2.59647,-1.151264 -3.17333,-0.575632 -0.57716,0.575632 -1.15402,0.863448 -1.15402,1.727203 0,0.863448 0.28843,2.014712 0.57686,2.878161 0.28843,1.151571 0.57716,2.302835 0.57716,3.454099 -0.28873,0.863449 -0.57716,1.726897 -1.73119,2.590652 -2.01931,1.43908 -4.90421,1.43908 -6.6354,-0.863755 -1.15402,-1.439081 -1.44245,-2.590345 -1.44245,-3.453793 v -0.575632 h -0.57686 c -0.28873,0 -0.28873,0 -0.57716,-0.288123 v -0.287816 c 0.28843,0 3.17364,-2.014713 3.46207,-2.014713 h 0.28842 z" fill="#58595b" id="path29" style="stroke-width:3.06513"/>
  <path d="m 258.20475,74.549272 c -0.28843,0 -4.32735,2.590651 -4.61578,2.878467 -0.57717,0.287816 -0.57717,0.575632 -0.28874,1.151265 l 0.57717,0.863448 v 0.287816 l -0.57717,0.287816 h -0.28843 c 0,-0.287816 -0.57686,-0.863448 -1.44245,-2.590345 -1.15402,-1.727203 -1.73088,-2.590651 -1.73088,-2.878467 v -0.287816 l 0.57686,-0.287816 h 0.28843 l 0.57716,0.863448 c 0.28843,0.287816 0.57686,0.863448 1.15402,0.575632 0.28843,0 4.32736,-2.590345 5.19295,-3.165977 l 1.15372,-0.863755 c 0.57716,-0.287816 3.7505,-2.302528 4.03923,-2.590345 0.28843,-0.287816 0.57686,-0.575632 0.28843,-1.151265 l -0.86559,-1.15157 v -0.287816 l 0.57716,-0.287816 h 0.28843 c 0,0.287816 0.57686,1.151264 1.73088,2.878467 1.15403,1.726897 1.44246,2.302529 1.73088,2.590345 v 0.287816 l -0.86528,0.575939 h -0.28874 l -0.28843,-0.575939 c -0.28843,-0.287816 -0.57686,-0.575632 -0.86529,-0.287816 -0.28873,0 -4.32766,2.590652 -4.61609,2.590652 z" fill="#58595b" id="path30" style="stroke-width:3.06513"/>
  <path d="m 259.64659,81.169348 v 0 c -0.57716,0.575633 -1.44245,1.151265 -2.01962,2.01502 -0.57685,1.151264 -0.57685,2.302528 0,3.165977 0.57717,1.151264 2.01962,2.302835 3.46207,1.439387 1.73088,-0.863755 2.01931,-2.01502 1.73088,-4.317548 0,-0.863755 -0.28843,-2.302836 0.28843,-3.741916 0.28874,-0.863448 1.15403,-1.727203 2.30805,-2.302835 1.15402,-0.575632 2.30804,-0.575632 3.46207,0 1.15402,0.575632 1.73088,1.151571 2.30804,2.302835 0.57686,1.151264 0.57686,2.302529 0.86529,2.590345 0,0.287816 0,0.287816 0.28843,0.287816 h 0.28874 c 0,0 0.28842,0 0.28842,0.287816 0,0 0,0.288123 -0.28842,0.288123 -0.28874,0.287816 -2.88522,1.726896 -3.17364,2.014712 h -0.28843 l -0.28843,-0.287816 v -0.287816 c 0.57686,-0.575632 1.15402,-1.151264 1.44245,-2.302835 0.28843,-0.863448 0.28843,-1.439081 -0.28843,-2.302529 -0.86559,-1.43908 -2.30805,-1.43908 -2.88521,-1.151264 -0.57686,0.287816 -1.15372,0.575632 -1.44245,1.43908 -0.28843,0.863448 -0.28843,2.014713 0,2.878468 0.28873,1.151264 0.28873,2.302528 -0.28843,3.453793 -0.28843,0.863448 -0.86529,1.727203 -2.30805,2.302835 -2.30774,1.151264 -5.19295,0.575632 -6.34666,-2.015019 -0.8656,-1.439081 -0.8656,-2.590345 -0.57717,-3.741609 v -0.575939 h -0.57686 c -0.28843,0 -0.28843,0 -0.28843,-0.287816 0,-0.287816 0,-0.287816 0.28843,-0.287816 0.28843,0 3.46177,-1.439081 3.7505,-1.439081 h 0.28843 z" fill="#58595b" id="path31" style="stroke-width:3.06513"/>
  <path d="m 270.32123,103.62023 c -1.15403,0.28812 -3.17364,0.86375 -3.46207,1.15157 -1.15403,0.28782 -1.44245,0.86345 -1.44245,1.43908 0,0.28782 0,0.86345 0.28842,1.7269 0,0.28781 0.28874,1.43939 0.57717,1.7272 0.28843,0.28782 0.57686,1.15127 1.15402,1.43908 0.57686,0.28782 2.01931,1.15127 2.88491,1.15127 0,0 0.28842,0 0.28842,0.28781 v 0.28782 h -0.28842 -3.46207 c -0.28843,0 -0.28843,0 -0.57686,-0.28782 0,0 0,-0.57563 -0.57717,-1.72689 -0.28842,-1.43908 -0.86528,-3.4541 -2.01931,-6.9079 -0.28843,-0.86375 -0.28843,-1.43938 -0.57716,-1.7272 0,-0.28782 -0.28843,-0.57563 -0.28843,-0.86345 v -0.28781 l 0.57716,-0.28782 c 0,0 0.28843,0 0.28843,0.28782 l 0.28843,0.57563 c 0.28843,0.86345 0.28843,0.86345 1.15403,0.86345 l 6.92383,-2.01472 c 1.73088,-0.575629 4.32735,-1.151262 4.61609,-1.439078 0.57686,-0.288123 0.57686,-0.575939 0.57686,-1.151571 l -0.28843,-0.863448 v -0.287816 l 0.57686,-0.287816 h 0.28873 c 0,0.575632 0.28843,1.151264 0.86529,2.878467 l 0.28843,0.575633 c 0.28873,0.863449 1.73119,5.756629 2.01962,6.620079 0,0.28781 0.28843,0.57563 0.28843,0.86345 v 0.28781 c -0.28843,0.28782 -2.88491,1.72721 -2.88491,2.01502 h -0.28843 l -0.28843,-0.28781 v -0.28782 c 0,0 1.44245,-2.30284 1.73088,-2.87847 0,-0.57563 0.28843,-1.15126 0,-1.7269 l -0.86559,-3.16628 -6.05824,1.7269 c 0.28843,0.57563 0.57686,2.01502 0.86529,2.30283 0.28843,0.28782 0.57716,0.57564 1.15402,0.86345 h 1.15403 0.28842 v 0.57563 0.28782 c -0.28842,0 -1.73088,0.57563 -2.30804,0.57563 -0.86529,0.28782 -1.73088,0.57563 -2.30774,0.86376 h -0.28843 l -0.28874,-0.28813 v -0.28781 c 0.28874,-0.28782 0.57717,-0.57563 0.8656,-0.57563 0.28843,-0.28782 0.57686,-0.86345 0.57686,-1.15127 0,-0.86345 -0.28843,-1.7269 -0.57686,-2.30253 z" fill="#58595b" id="path32" style="stroke-width:3.06513"/>
  <path d="m 282.4377,119.16383 v -0.57563 c 0,-0.57563 -0.28843,-2.30284 -0.86559,-3.16628 -0.28843,-0.57564 -2.01931,-1.15127 -2.59617,-1.43909 0,0 -0.28874,0 -0.28874,-0.28781 v -0.57563 h 0.28874 l 4.03893,0.28781 c 0.28843,0 0.28843,0 0.28843,0.28782 0,0 0,0.28781 -0.28843,0.28781 -0.28874,0.57564 -0.28874,1.15127 -0.28874,1.7269 0,1.15127 0.28874,2.01471 0.57717,4.02973 l 0.28842,1.15127 c 0.28843,2.30283 0.57686,3.16628 0.8656,4.31755 0,0.28781 0.57686,1.15126 0.86529,1.43908 l 0.28873,0.28781 c 0,0 0,0.28782 -0.28873,0.28782 -0.28843,0 -2.88491,0.86375 -4.03893,1.15157 h -0.28843 l -0.28843,-0.28782 v -0.28781 c 0.57686,-0.28782 1.73088,-1.43939 2.01931,-2.01502 0.28874,-0.57563 0,-2.59035 0,-3.4541 v -0.57563 l -11.25119,1.7272 c -1.73088,0.28782 -2.01961,0.57563 -2.01961,1.15126 l 0.28873,1.15127 -0.28873,0.28781 h -0.57686 c 0,0 -0.28843,0 -0.28843,-0.28781 0,-0.28782 0,-0.86345 -0.57717,-3.16598 -0.28843,-2.30283 -0.57686,-3.16628 -0.57686,-3.4541 0,0 0,-0.28782 0.28843,-0.28782 h 0.57686 0.28874 l 0.28843,1.15127 c 0,0.28782 0.28843,0.57563 0.57686,0.57563 0.57716,0 7.21256,-1.15126 7.50099,-1.15126 z" fill="#58595b" id="path33" style="stroke-width:3.06513"/>
  <path fill-rule="evenodd" clip-rule="evenodd" d="m 271.47556,144.49318 h 4.03892 0.8656 v 0.57563 c 0,1.06698 -0.49564,1.39219 -1.25701,1.89242 -0.0601,0.0395 -0.12199,0.0803 -0.18545,0.12229 v 0 c -0.57716,0.28812 -1.73118,0.86375 -2.01961,1.15157 -0.28843,0.28782 -2.01931,1.15126 -2.59648,1.43908 v 0 c -0.14436,0.14406 -0.36046,0.28782 -0.57686,0.43188 -0.21639,0.14375 -0.43279,0.28781 -0.57716,0.43157 v 2.01502 2.01471 c 0,0.14376 0,0.21579 0.0362,0.25165 0.0359,0.0362 0.1079,0.0362 0.25226,0.0362 h 0.57717 c 0.28843,0 0.28843,-0.28782 0.28843,-0.28782 0,-0.57563 0.28843,-1.15126 0.57685,-1.43908 0.28874,-0.28781 2.30805,-1.7272 2.59648,-1.7272 0.14437,-0.14376 0.72153,-0.5036 1.29839,-0.86345 0.57686,-0.35985 1.15402,-0.71939 1.29809,-0.86345 0.57716,-0.28781 0.86559,-0.57563 1.15402,-1.15126 0.28873,2.30253 1.44245,4.02973 4.03893,4.02973 0.86559,0 2.01961,-0.28781 2.59647,-1.15157 0.86559,-0.57563 1.44245,-2.01471 1.44245,-3.74161 v -3.74191 c 0.28874,-2.01502 0.28874,-2.59066 0.28874,-2.87847 0,-0.28782 -0.28874,-0.28782 -0.28874,-0.28782 h -0.57686 v 0.28782 0.86345 c 0,0.28781 -0.28843,0.57563 -1.15402,0.57563 l -5.76981,-0.28781 c -1.19264,0 -2.30805,-0.0766 -3.38636,-0.15112 -1.00843,-0.0693 -1.98468,-0.1367 -2.96061,-0.1367 -0.57717,0 -0.57717,-0.28782 -0.57717,-0.86345 v -0.86345 h -0.28843 -0.57686 c -0.28843,0 -0.28843,0.28782 -0.28843,0.28782 v 2.87847 c -0.28873,2.30252 -0.28873,2.59034 -0.28873,2.87816 0,0.14375 0,0.21578 0.0362,0.25195 0.0359,0.0359 0.1082,0.0359 0.25257,0.0359 h 0.57686 c 0.28843,0 0.28843,-0.28782 0.28843,-0.28782 v -1.15126 c 0,-0.28782 0.28843,-0.57563 0.86559,-0.57563 z m 6.05854,1.15126 V 144.781 h 6.34667 c 0.28873,0 0.57716,0 0.57716,0.28781 v 0.86345 c -0.28843,1.15126 -0.57716,2.01502 -1.15402,2.87847 -0.28843,0.57563 -1.44245,0.86345 -2.30805,0.86345 -0.86559,0 -3.46176,-0.57564 -3.46176,-4.02974 z" fill="#58595b" id="path34" style="stroke-width:3.06513"/>
  <path d="m 274.93671,161.47525 c -1.15372,-0.28782 -3.17334,-0.57563 -3.7502,-0.57563 -1.15402,-0.28782 -1.73118,0 -1.73118,0.57563 0,0.28782 -0.28843,0.86375 -0.28843,1.7272 0,0.28782 -0.28843,1.43908 -0.28843,1.7269 0,0.28782 0,1.15126 0.57686,1.7269 0.28873,0.57593 1.44245,1.7272 2.01961,2.30283 v 0.28782 l -0.28843,0.28781 h -0.28873 l -3.17334,-1.43908 c -0.28843,0 -0.28843,-0.28781 -0.28843,-0.57563 0,0 0,-0.57594 0.28843,-2.01502 0.28843,-1.43908 0.57686,-3.4541 1.15403,-7.19571 0,-0.86375 0.28843,-1.43939 0.28843,-1.7272 v -0.86345 c 0,0 0,-0.28782 0.28843,0 h 0.57716 c 0,0 0.28843,0 0,0.28782 v 0.86344 c -0.28843,0.86376 0,1.15158 0.86529,1.15158 l 7.21257,1.15126 c 1.73088,0.28782 4.32735,0.57563 4.61578,0.57563 0.57717,0 0.86559,-0.28781 0.86559,-0.86345 v -0.86344 h 0.28843 0.57717 c 0,0 0.28843,0 0,0.28781 0,0.57563 -0.28874,1.15127 -0.57717,2.87816 v 0.57564 c -0.28843,0.86375 -0.86528,5.75693 -1.15402,6.62038 v 0.86345 l -0.28843,0.28781 c -0.28843,0 -3.17333,0.28782 -3.46176,0.57564 h -0.28874 v -0.28782 -0.28782 c 0,0 2.30805,-1.43908 2.88491,-2.01471 0.28873,-0.28782 0.57716,-0.86375 0.86559,-1.43939 l 0.57717,-3.16597 -6.05855,-1.15157 c 0,0.57593 -0.28843,2.30283 -0.28843,2.30283 0,0.57563 0,0.86345 0.57686,1.15127 0.28843,0.28781 0.8656,0.57563 1.15402,0.57563 0,0 0.28843,0 0,0.28781 v 0.57564 h -0.28842 c -0.28843,0 -1.73089,-0.28782 -2.30805,-0.28782 -0.86559,0 -2.01931,-0.28782 -2.30805,-0.28782 v -0.28781 -0.57563 l 0.28874,-0.28782 c 0.28843,0 0.86529,0 1.15372,-0.28782 0.57716,0 0.86559,-0.57563 0.86559,-0.86345 0.28843,-0.86344 0.28843,-1.7272 0.57716,-2.30283 z" fill="#58595b" id="path35" style="stroke-width:3.06513"/>
  <path d="m 264.55172,185.94115 h -0.57685 c -0.28874,0 -0.28874,-0.28782 -0.28874,-0.28782 -0.28843,-2.01471 -0.28843,-3.74191 0.28874,-6.33226 0.57685,-2.01502 2.01931,-4.31754 4.03892,-5.18099 1.73088,-0.86345 3.7505,-0.86345 6.05824,-0.28782 2.01962,0.57563 3.7505,2.01471 4.61609,4.02973 0.86529,2.01471 0.86529,4.02943 0.28843,6.33226 -0.57686,2.01472 -1.73088,3.4541 -2.30804,3.74192 -0.28843,0.28781 -0.28843,0.28781 0,0.57563 l 0.28873,0.28782 c 0,0.28781 0.28843,0.28781 0,0.28781 0,0.28782 -0.28873,0.28782 -0.28873,0.28782 l -4.32736,-1.15127 c -0.28843,0 -0.28843,0 -0.28843,-0.28781 v -0.57563 c 0,0 0,-0.28782 0.28843,-0.28782 0.86559,0 2.30805,-0.28812 3.46207,-0.86375 0.86529,-0.57564 2.01931,-1.43908 2.59647,-2.87817 0.28843,-1.15157 0.28843,-2.59065 -0.57716,-4.02973 -0.86529,-1.43908 -2.30805,-2.59065 -4.03893,-3.16628 -2.30804,-0.86345 -4.61578,-0.57563 -6.34697,0 -1.15402,0.57563 -2.01931,1.43939 -2.30774,2.87847 -0.28874,1.43908 -0.57717,2.01471 -0.28874,2.87816 0,0.57594 0.57717,0.86375 1.73119,1.15157 l 1.44245,0.57563 c 0.86529,0.28782 1.15403,0 1.15403,-0.57563 l 0.28843,-0.86376 h 0.28842 0.57686 c 0,0 0.28874,0 0,0.28813 0,0.28781 -0.57686,1.15126 -0.86528,2.87816 -0.57717,1.7272 -0.57717,2.59065 -0.8656,2.59065 0,0.28781 0,0.28781 -0.28843,0.28781 l -0.57686,-0.28781 c 0,0 -0.28873,0 0,-0.28782 l 0.28843,-0.57563 c 0,-0.28812 0,-0.57594 -0.57716,-0.86375 z" fill="#58595b" id="path36" style="stroke-width:3.06513"/>
  <path d="m 265.70452,196.30314 c -0.28873,0 -4.90452,-2.01471 -4.90452,-2.01471 -0.57717,-0.28782 -0.86559,0 -1.15402,0.57563 l -0.28843,0.86345 h -0.28843 l -0.57716,-0.28782 v -0.28781 c 0,-0.28782 0.57716,-0.86345 1.15402,-2.87816 0.86559,-2.01502 1.15402,-2.87847 1.15402,-3.16629 h 0.28843 l 0.57686,0.28782 v 0.28782 l -0.28843,0.57563 c -0.28843,0.28781 -0.28843,0.86345 0.28843,1.15126 0.28873,0.28782 4.61609,2.01502 5.48168,2.59065 l 1.44246,0.57564 c 0.57685,0.28781 4.03892,1.72689 4.32735,1.72689 0.57686,0 0.8656,0 1.15402,-0.57563 l 0.57686,-1.15126 h 0.28874 l 0.57686,0.28781 v 0.28782 c 0,0.28781 -0.57686,1.15126 -1.44246,3.16628 -0.86559,2.01471 -1.15402,2.59034 -1.15402,2.87816 h -0.28843 l -0.57716,-0.28782 v -0.28781 l 0.28873,-0.86345 c 0.28843,-0.57563 0.28843,-0.86345 -0.28873,-0.86345 -0.28843,0 -4.61579,-2.01471 -4.90422,-2.01471 z" fill="#58595b" id="path37" style="stroke-width:3.06513"/>
  <path d="m 260.51126,204.93854 c -1.15402,-0.57563 -2.8849,-1.43939 -3.17333,-1.7272 -0.86559,-0.57563 -1.44245,-0.28782 -2.01961,0 -0.28843,0.28781 -0.57686,0.57563 -0.86529,1.43938 -0.28843,0.28782 -0.57717,1.15127 -0.8656,1.7269 -0.28843,0.28782 -0.28843,1.15127 -0.28843,2.01471 0,0.57594 0.8656,2.30284 1.15403,2.87847 v 0.28782 l -0.28843,0.28781 h -0.28874 l -2.30774,-2.59034 c 0,-0.28782 -0.28873,-0.28782 0,-0.57594 l 0.86529,-1.7269 c 0.57717,-1.15126 1.73119,-3.16628 3.46207,-6.33226 l 0.86559,-1.7272 c 0.28843,-0.28782 0.28843,-0.57563 0.28843,-0.86345 h 0.28843 l 0.57686,0.28782 v 0.28781 l -0.28843,0.57564 c -0.57686,0.86375 -0.28843,0.86375 0.28843,1.43938 l 6.34697,3.4538 c 1.44245,0.86375 4.03893,2.01501 4.32767,2.30283 0.57685,0.28782 0.86528,0 1.15371,-0.57563 l 0.28874,-0.57563 h 0.28843 l 0.57686,0.28781 v 0.28782 c -0.28843,0.28781 -0.57686,1.15126 -1.44246,2.59034 l -0.28843,0.57594 c -0.57716,0.86345 -2.8849,5.181 -3.17333,6.04444 -0.57716,-0.28781 -0.57716,0.28783 -0.57716,0.28783 h -0.28843 c -0.28843,0 -3.17364,-0.86346 -3.46207,-0.86346 0,0 -0.28843,0 -0.28843,-0.28781 v -0.28782 h 0.28843 c 0.28843,0 2.8849,-0.57594 3.17364,-0.86375 0.57686,-0.28782 0.86528,-0.57563 1.15402,-1.15127 l 1.73088,-2.87816 -5.19295,-3.16628 c -0.28843,0.57563 -1.15402,2.01471 -1.15402,2.30253 -0.28843,0.57563 0,0.86375 0.28843,1.15157 l 0.86559,0.86345 v 0.28781 l -0.28843,0.57563 h -0.28873 c -0.28843,-0.28781 -1.44246,-0.86344 -2.01931,-1.15126 -0.8656,-0.28782 -1.73088,-0.86345 -2.01962,-1.15157 v -0.28782 l 0.28874,-0.57563 h 0.28843 c 0.28842,0 0.86528,0.28782 1.15402,0.28782 0.57685,0 0.86528,-0.28782 1.15402,-0.57563 0.57686,-0.57564 0.86529,-1.43909 1.44245,-2.01472 z" fill="#58595b" id="path38" style="stroke-width:3.06513"/>
  <path d="m 256.18391,219.04245 c -2.88491,-2.30283 -5.48138,-3.74191 -6.05824,-4.02974 -0.86559,-0.57563 -1.44245,-0.57563 -2.01962,0 l -0.28843,0.57564 h -0.28842 l -0.28843,-0.28781 v -0.28783 c 0,-0.28781 0.86528,-1.15156 1.44245,-1.7272 0.28843,-0.57563 1.15402,-1.72689 1.15402,-1.72689 h 0.28843 l 0.57686,0.28781 v 0.28782 l -0.57686,0.57563 c -0.28843,0.57563 0,0.86345 0.86529,1.7272 0.28873,0.28782 2.59647,2.01471 5.48168,4.02943 l 2.30774,1.7272 c 1.15403,0.86346 2.30805,0.86346 2.88521,0 l 0.28843,-0.57562 h 0.28843 l 0.57686,0.28781 v 0.28781 c 0,0 -0.28843,0.28782 -0.28843,0.57563 -0.28843,0.28783 -0.57686,0.86345 -1.15402,1.43908 -0.28843,0.28783 -0.28843,0.57564 -0.57686,0.86345 -0.28843,0.28782 -0.28843,0.28782 -0.28843,0.57595 -0.28874,0.28781 -0.28874,0.28781 -0.57716,0.28781 -0.28843,0 -7.21226,0.28782 -7.78943,0.28782 -0.57686,0 -5.76981,0.28781 -6.34666,0.28781 l 1.73088,1.43908 c 1.44245,1.15127 2.30804,1.72689 3.17333,2.30253 0.57716,0.57594 2.30805,1.7272 2.8849,1.7272 0.57717,0.28782 1.15403,0 1.44276,-0.57562 l 0.28843,-0.57564 h 0.28843 l 0.28843,0.28781 v 0.28783 c -0.28843,0.28781 -0.57686,0.86344 -1.44245,2.0147 -0.8656,1.15127 -1.15403,1.43908 -1.15403,1.7272 h -0.28842 l -0.28843,-0.28812 c 0,0 -0.28843,-0.28781 0,-0.28781 l 0.28843,-0.57564 c 0.28842,-0.28781 0,-0.86344 -0.57686,-1.15125 -1.15403,-0.86346 -4.03893,-3.1663 -5.77012,-4.60538 l -4.61578,-3.45409 c -0.28874,-0.28781 -0.57717,-0.28781 -0.28874,-0.57564 0.28874,-0.28781 0.57717,-0.28781 0.57717,-0.28781 0.28843,0 2.01931,-0.28782 4.03892,-0.28782 2.30805,0 4.90452,-0.28781 5.48138,-0.28781 0.28843,0 6.05855,-0.28781 6.34698,-0.28781 z" fill="#58595b" id="path39" style="stroke-width:3.06513"/>
  <path d="m 241.47096,229.97977 c -0.86529,-0.57563 -1.44245,-0.86346 -2.59648,-1.15127 -1.15402,-0.28781 -2.30774,0.28781 -3.17333,0.86345 -0.86559,0.86375 -1.44245,2.59066 0,3.74192 1.44245,1.43908 2.59648,1.15126 4.61579,0 0.57716,-0.28782 2.01961,-0.86345 3.46206,-1.15126 0.8656,0 2.01962,0.28781 2.88491,1.43908 0.86559,0.86344 1.15402,1.7272 1.15402,3.16628 0,1.15126 -0.57686,2.0147 -1.44245,2.87816 -0.86559,1.15157 -1.73088,1.43938 -2.30805,1.7272 -0.28843,0 -0.28843,0.28782 -0.28843,0.28782 v 0.28782 0.28781 h -0.28842 c -0.28843,-0.28781 -2.59648,-2.01472 -2.88491,-2.30253 v -0.28812 l 0.28843,-0.28782 h 0.28843 c 0.57686,0.28782 1.44245,0.57594 2.59647,0.57594 0.8656,0 1.44246,-0.28812 2.30805,-1.15158 1.15402,-1.15125 0.57686,-2.59033 0,-3.16597 -0.57716,-0.57593 -1.15402,-0.86375 -1.73119,-0.86375 -0.86528,0 -2.01931,0.57594 -2.8849,0.86375 -1.15402,0.57564 -2.01931,1.15127 -3.46176,1.15127 -0.8656,0 -2.01962,-0.28782 -2.88521,-1.43908 -2.01932,-1.7272 -2.30774,-4.60536 -0.28843,-6.62039 1.15402,-1.15127 2.30804,-1.72689 3.17364,-2.01471 0.28843,0 0.57685,0 0.57685,-0.28781 v -0.57564 -0.57593 h 0.28843 c 0.28843,0.28781 2.59648,2.87846 2.59648,3.16628 v 0.28781 z" fill="#58595b" id="path40" style="stroke-width:3.06513"/>
  <path d="m 231.08536,243.22054 c 0,-0.28783 -3.46206,-3.74192 -3.75049,-4.02973 -0.57686,-0.57564 -0.8656,-0.28783 -1.15403,0 l -0.57685,0.57562 h -0.28843 l -0.28874,-0.28781 v -0.28781 c 0.28874,-0.28783 0.86559,-0.57564 2.30805,-2.01503 1.73088,-1.43908 2.30804,-2.01471 2.30804,-2.30252 h 0.28843 l 0.28843,0.57563 v 0.28781 l -0.57686,0.57564 c -0.28843,0.28781 -0.57716,0.57563 -0.28843,1.15125 0.28843,0.28783 3.17334,3.74192 4.03893,4.60538 l 0.86529,1.15157 c 0.28873,0.28781 2.88521,3.16597 3.17364,3.45379 0.28843,0.28781 0.57686,0.28781 1.15402,0 l 0.86529,-0.86346 h 0.28873 l 0.28843,0.28783 v 0.28781 c -0.28843,0.28782 -1.15402,0.86344 -2.59647,2.30283 -1.44245,1.43908 -2.01962,2.01472 -2.30805,2.01472 h -0.28843 l -0.28843,-0.28781 v -0.28783 l 0.57686,-0.57563 c 0.28843,-0.28781 0.57686,-0.57562 0.28843,-0.86345 0,-0.28781 -3.17333,-3.74191 -3.46176,-4.02972 z" fill="#58595b" id="path41" style="stroke-width:3.06513"/>
  <path d="m 224.73808,245.52306 v 0 c -0.57685,-0.57563 -1.15402,-1.15127 -2.30804,-1.43908 -1.15402,-0.57563 -2.30805,-0.28781 -3.17333,0.57564 -0.8656,0.57563 -1.73089,2.30252 -0.8656,3.74191 1.15402,1.72689 2.30805,1.43908 4.61609,0.86345 0.57686,-0.28781 2.30774,-0.57564 3.46177,-0.57564 0.86559,0 2.01961,0.86345 2.59647,1.72691 0.8656,0.86344 0.8656,2.01501 0.57717,3.45409 -0.28874,1.15127 -0.8656,2.01472 -1.73119,2.59035 -1.15372,0.86376 -2.01931,1.15157 -2.59648,1.15157 -0.28843,0 -0.28843,0.28781 -0.28843,0.28781 v 0.28782 c 0,0 0,0.28781 -0.28843,0.28781 0,0 -0.28842,0 -0.28842,-0.28781 -0.28843,-0.28782 -2.30805,-2.59066 -2.30805,-2.59066 v -0.28781 l 0.28843,-0.28781 h 0.28843 c 0.57716,0.28781 1.44276,0.86345 2.30804,1.15126 0.8656,0.28782 1.44246,0 2.30805,-0.57564 1.44245,-1.15125 1.15402,-2.59033 0.57686,-3.16597 -0.57686,-0.57563 -0.86529,-1.15157 -1.73088,-1.15157 -0.8656,0 -2.01931,0.28782 -2.88491,0.57594 -1.15402,0.57563 -2.30804,0.57563 -3.46207,0.57563 -0.86528,-0.28781 -1.73088,-0.57563 -2.59647,-1.7272 -1.44245,-2.01472 -1.44245,-4.89319 0.86559,-6.62008 1.44245,-1.15127 2.59648,-1.43908 3.46207,-1.43908 h 0.57686 v -0.57593 c 0,-0.28782 0,-0.28782 0.28843,-0.57564 h 0.28843 c 0,0.28782 2.01961,3.16629 2.01961,3.4541 v 0.28782 z" fill="#58595b" id="path42" style="stroke-width:3.06513"/>
  <path d="m 122.32184,271.42805 v -2.59035 c 0,-0.86345 -0.28843,-1.15127 -1.44245,-1.15127 h -1.15403 -0.28843 v -0.86376 c 0,0 0,-0.28781 0.28843,-0.28781 h 3.7505 3.7505 c 0.28843,0 0.28843,0 0.28843,0.28781 v 0.86376 c 0,0.28782 0,0.28782 -0.28843,0.28782 h -1.44245 c -0.8656,0 -1.15402,0.28781 -1.15402,1.15126 v 3.16628 1.43908 3.74192 c 0,0.86346 0.57685,1.43908 1.73088,1.43908 h 1.15402 c 0,0 0.28843,0 0.28843,0.28782 v 0.28782 c 0,0.28782 0,0.28782 -0.28843,0.28782 h -3.7505 -4.03893 c -0.28843,0 -0.28843,0 -0.28843,-0.28782 v -0.86345 c 0,-0.28781 0,-0.28781 0.28843,-0.28781 h 0.8656 c 0.86559,0 1.44245,-0.28783 1.73088,-1.15127 v -4.60536 z" fill="#58595b" id="path43" style="stroke-width:3.06513"/>
  <path d="m 134.15142,271.42805 v -2.59035 c 0,-0.86345 -0.28843,-1.15127 -1.44245,-1.15127 h -1.15403 -0.28843 v -0.86376 c 0,0 0,-0.28781 0.28843,-0.28781 h 3.7505 3.7505 c 0.28843,0 0.28843,0 0.28843,0.28781 v 0.86376 c 0,0.28782 0,0.28782 -0.28843,0.28782 h -1.44245 c -0.8656,0 -1.15403,0.28781 -1.15403,1.15126 v 3.16628 1.43908 3.74192 c 0,0.86346 0.57686,1.43908 1.73089,1.43908 h 1.15402 c 0,0 0.28843,0 0.28843,0.28782 v 0.28782 c 0,0.28782 0,0.28782 -0.28843,0.28782 h -3.7505 -4.03893 c -0.28843,0 -0.28843,0 -0.28843,-0.28782 v -0.86345 c 0,-0.28781 0,-0.28781 0.28843,-0.28781 h 0.8656 c 0.86528,0 1.44245,-0.28783 1.73088,-1.15127 v -4.60536 z" fill="#58595b" id="path44" style="stroke-width:3.06513"/>
  <path d="m 143.6708,287.25915 c 0,-0.57562 0.57717,-1.7272 0.8656,-2.30284 0.86559,-1.72689 6.6354,-13.24014 8.07785,-15.8308 h -6.05854 c -1.73088,0 -2.59648,0.86346 -3.17333,1.7269 h -0.28843 c -0.28843,0 -0.57717,-0.28782 -0.28843,-0.57563 0.57686,-0.86345 2.30774,-4.31755 2.30774,-4.60536 0,-0.28783 0.28873,-0.28783 0.28873,-0.28783 0,0 0.57686,0 0.57686,0.28783 0,0.28781 0,0.28781 -0.28843,0.57563 0,0.57593 0.28843,0.57593 1.15402,0.57593 h 7.78943 c 0.28843,0 0.57686,0.28783 0.28843,0.57564 -1.15402,2.01471 -4.03893,7.48352 -4.61609,8.63479 -0.28843,0.57593 -3.7505,7.77165 -4.32736,9.78666 -0.57686,1.7269 -0.86559,2.30254 -1.44245,2.30254 -0.57717,0 -0.8656,-0.28783 -0.8656,-0.86346 z" fill="#58595b" id="path45" style="stroke-width:3.06513"/>
  <path d="m 156.36536,285.24414 c 0,-0.57564 0.28843,-0.86345 0.86529,-0.86345 0.57717,0 1.15402,0.57562 1.15402,0.57562 0.28843,0.28783 0.8656,0.57564 2.01962,0.57564 2.01931,0 3.46176,-1.72689 3.46176,-4.60536 0,-4.31725 -2.8849,-5.181 -5.7698,-5.75664 l 1.44245,-8.05914 c 0,-0.28783 0.28843,-0.28783 0.57686,-0.28783 h 4.03923 c 1.44245,0 1.73088,-0.86375 2.01931,-1.43939 h 0.28843 v 0.28783 l -0.86529,2.87847 c 0,0.57562 -0.57716,0.57562 -0.86559,0.57562 h -4.32736 l -0.86559,4.02974 c 3.17333,0.57562 6.34697,2.59034 6.34697,6.90789 0,4.02973 -3.17364,6.9082 -6.05854,6.9082 -1.73088,-0.28781 -3.46177,-0.57564 -3.46177,-1.7272 z" fill="#58595b" id="path46" style="stroke-width:3.06513"/>
  <path d="m 352.25441,58.718468 v 42.887352 c 0,16.11862 7.21226,23.02682 16.73256,23.02682 10.6728,0 17.59694,-7.19601 17.59694,-23.02682 V 58.718468 h 9.5203 v 42.311722 c 0,22.16307 -11.82834,31.08598 -27.40536,31.08598 -14.71264,0 -25.96475,-8.34728 -25.96475,-30.79816 V 58.718468 Z" fill="#58595b" id="path47" style="stroke-width:3.06513"/>
  <path d="M 417.45288,130.67709 V 58.718468 h 10.38773 l 23.0774,36.554789 c 5.1954,8.347283 9.52031,16.118923 12.98391,23.314633 h 0.28812 c -0.86437,-9.49854 -1.15249,-18.42145 -1.15249,-29.646894 V 58.718468 h 8.941 V 130.9649 h -9.52031 l -23.0774,-36.555092 c -4.90421,-8.059463 -9.81149,-16.406437 -13.27203,-24.178084 h -0.28812 c 0.57624,9.210728 0.57624,17.845824 0.57624,29.646897 v 30.798469 z" fill="#58595b" id="path48" style="stroke-width:3.06513"/>
  <path d="M 502.84751,58.718468 V 130.9649 H 493.3272 V 58.718468 Z" fill="#58595b" id="path49" style="stroke-width:3.06513"/>
  <path d="m 585.35785,99.015172 c -0.57624,-10.074176 -1.15249,-22.163371 -1.15249,-31.085976 h -0.28812 c -2.59617,8.346972 -5.48352,17.5577 -9.23219,27.344061 l -12.69272,35.116013 h -7.21532 L 542.94865,96.137012 c -3.46053,-10.074484 -6.34482,-19.573028 -8.36474,-27.920001 h -0.28812 c -0.28812,8.922912 -0.86744,21.011801 -1.44368,31.949429 l -2.01992,30.79846 h -8.941 l 4.90421,-72.246432 h 11.82836 l 12.40459,34.827892 c 2.88429,8.92291 5.48046,16.98238 7.21226,24.4659 h 0.28812 c 2.01992,-7.19571 4.6161,-15.25517 7.78851,-24.4659 l 12.98391,-34.827892 h 11.82836 l 4.61609,72.246432 h -9.23219 z" fill="#f04926" id="path50" style="stroke-width:3.06513"/>
  <path fill-rule="evenodd" clip-rule="evenodd" d="m 611.89885,95.561379 c 0,21.875251 13.27203,36.554791 32.60076,36.554791 18.46438,0 33.46514,-13.52828 33.46514,-37.994178 0,-21.587433 -12.69272,-36.555096 -32.60076,-36.555096 -19.32874,0 -33.46514,14.967663 -33.46514,37.994483 z m 56.25747,-1.151571 c 0,16.406742 -8.36475,29.935022 -23.08045,29.935022 -15.00078,0 -23.36859,-14.10391 -23.36859,-29.35939 0,-15.542988 7.79157,-29.934712 23.36859,-29.934712 15.58006,0 23.08045,14.967356 23.08045,29.35908 z" fill="#f04926" id="path51" style="stroke-width:3.06513"/>
  <path d="m 795.96015,97.00046 h -27.98467 v 25.90498 h 31.44828 v 7.77165 h -40.6774 V 58.718468 h 39.23372 v 7.77134 h -29.71341 v 22.739004 h 27.98161 v 7.771648 z" fill="#f04926" id="path52" style="stroke-width:3.06513"/>
  <path fill-rule="evenodd" clip-rule="evenodd" d="m 734.22223,130.67709 h 10.67585 c -1.44368,-2.59065 -3.4636,-9.49855 -6.05976,-19.57303 -1.72875,-7.48352 -5.48047,-12.66452 -11.54024,-14.679539 v -0.287816 c 8.36783,-2.590345 15.00384,-8.922912 15.00384,-18.421456 V 75.41272 c -0.57625,-5.756628 -3.17548,-9.78636 -8.07969,-12.952644 -0.14407,-0.143755 -0.28814,-0.215786 -0.43219,-0.287816 -0.14407,-0.07203 -0.28812,-0.143755 -0.43219,-0.287816 -0.14406,-0.143755 -0.28812,-0.215786 -0.43218,-0.287816 -0.14406,-0.07203 -0.28812,-0.144062 -0.43219,-0.287816 -0.14405,0 -0.21761,-0.07203 -0.28812,-0.144062 -0.0736,-0.07172 -0.14712,-0.143754 -0.29119,-0.143754 h -0.28812 c -4.61609,-2.015019 -8.94406,-2.878467 -15.00076,-3.166284 h -0.28813 -3.17548 -0.57624 -0.57624 -1.44368 c -6.34483,0 -13.26897,0.863449 -17.88507,1.727204 v 71.095174 h 9.52031 V 99.302988 h 10.6728 c 9.52031,0.287816 13.84828,4.029732 16.15632,14.103912 2.01993,8.92291 4.03985,15.25517 5.19235,17.27019 z m -2.30806,-52.098086 c 0,8.346973 -6.0567,13.816092 -19.90497,13.816092 h -9.52031 V 66.201992 c 1.44368,-0.575632 8.07663,-0.863448 12.69272,-0.863448 7.21226,0 16.73256,2.878161 16.73256,13.24046 z" fill="#f04926" id="path53" style="stroke-width:3.06513"/>
  <path d="m 353.4069,190.83433 c -7.78851,0 -8.94406,-6.62008 -8.94406,-10.64981 v -15.8308 h 2.59616 v 15.54299 c 0,5.46881 2.30805,8.34727 6.3479,8.34727 4.32797,0 6.63601,-2.87846 6.63601,-8.34727 v -15.54299 h 2.59617 v 15.54299 c 0.28812,10.07417 -6.34789,10.93762 -9.23218,10.93762 z" fill="#58595b" id="path54" style="stroke-width:3.06513"/>
  <path d="m 388.89196,190.54651 h -2.30805 l -9.80843,-14.96735 c -1.44368,-2.30253 -2.88429,-4.31755 -4.03985,-6.33226 v 8.05915 13.24046 h -2.59616 v -26.19279 h 2.30804 v 0.28781 l 9.80842,14.96736 c 1.44368,2.30253 2.88736,4.31755 3.75174,6.04444 0,-2.59034 -0.28812,-4.89318 -0.28812,-8.34728 v -12.95233 h 2.59616 v 26.19279 z" fill="#58595b" id="path55" style="stroke-width:3.06513"/>
  <rect x="396.10425" y="164.35371" width="2.5964658" height="26.192949" fill="#58595b" id="rect55" style="stroke-width:3.06513"/>
  <path d="m 413.99233,190.54651 h -2.30804 v -0.28781 l -8.65594,-25.90498 h 2.88736 v 0.28781 l 4.61302,13.81609 c 0.86744,2.87847 1.7318,5.46882 2.30806,7.77165 0.86742,-2.59065 1.7318,-5.46912 2.88734,-8.34728 l 4.90422,-13.81609 h 2.88429 z" fill="#58595b" id="path56" style="stroke-width:3.06513"/>
  <path d="m 441.10957,190.54651 h -13.8452 v -26.19279 h 13.26896 v 2.59034 h -10.6728 v 8.6351 h 10.09656 v 2.59065 h -10.09656 v 10.07417 h 11.24904 z" fill="#58595b" id="path57" style="stroke-width:3.06513"/>
  <path fill-rule="evenodd" clip-rule="evenodd" d="m 460.72951,183.3508 c 0.57624,3.4538 1.15248,5.46882 1.7318,6.62008 l 0.28812,0.86345 h -2.88736 v -0.28782 c -0.57624,-0.86345 -1.1525,-3.16628 -1.72874,-6.33226 -0.5793,-3.74191 -2.01992,-5.18099 -5.1954,-5.18099 h -3.46053 v 11.51325 h -2.59617 v -25.61716 h 0.28812 c 1.44368,-0.28782 3.4636,-0.57563 5.48046,-0.57563 3.4636,0 5.77164,0.86345 7.21226,2.30253 1.44368,1.15126 2.01992,3.16628 2.01992,4.89318 0,2.87846 -1.44062,5.46881 -4.32796,6.62038 1.44368,0.86345 2.59922,2.59034 3.17548,5.18099 z m -11.25211,-6.62038 h 3.46053 c 3.75172,0 6.05978,-2.01471 6.05978,-5.18099 0,-4.02974 -3.46055,-4.89318 -6.3479,-4.89318 -0.88276,0 -1.65824,0.10789 -2.25901,0.19187 -0.38007,0.0527 -0.68965,0.0959 -0.9134,0.0959 z" fill="#58595b" id="path58" style="stroke-width:3.06513"/>
  <path d="m 472.84597,190.83433 c -2.30804,0 -4.90421,-0.86345 -6.34789,-1.7269 l -0.28812,-0.28781 1.15556,-2.30284 0.57624,0.28782 c 1.44061,0.86345 3.46053,1.43908 5.19233,1.43908 3.46055,0 5.76859,-1.7269 5.76859,-4.89318 0,-2.59035 -1.44061,-4.02943 -4.90421,-5.46881 -4.6161,-1.7269 -6.92414,-4.02973 -6.92414,-7.48353 0,-4.02973 3.17548,-6.9082 7.79158,-6.9082 2.59616,0 4.32796,0.57563 5.19233,1.15127 l 0.28812,0.28812 -1.15249,2.30253 -0.57931,-0.28782 c -0.57624,-0.57563 -2.30804,-1.15126 -4.03679,-1.15126 -4.03984,0 -4.90421,2.59034 -4.90421,4.02973 0,2.30253 1.15249,3.74161 4.90421,5.181 4.03679,1.72689 6.63296,3.45379 6.63296,7.77134 0,5.75693 -4.3249,8.05946 -8.36476,8.05946 z" fill="#58595b" id="path59" style="stroke-width:3.06513"/>
  <rect x="487.27051" y="164.35371" width="2.8849623" height="26.192949" fill="#58595b" id="rect59" style="stroke-width:3.06513"/>
  <path d="m 504.57931,190.54651 h -2.59616 v -23.60245 h -8.36783 v -2.59034 h 19.3318 v 2.59034 h -8.36781 z" fill="#58595b" id="path60" style="stroke-width:3.06513"/>
  <path d="m 520.44751,157.44552 v 0 h -3.46054 -0.86742 l 0.5793,0.57563 5.48046,4.60536 v 0 0 h 2.30805 0.57624 l -0.57624,-0.57563 -4.03985,-4.31755 z" fill="#58595b" id="path61" style="stroke-width:3.06513"/>
  <path fill-rule="evenodd" clip-rule="evenodd" d="m 523.61992,164.35372 v 0.28781 l 9.52031,25.90498 h -2.8843 l -3.17241,-8.92291 h -9.23217 l -3.17548,8.92291 h -2.8843 l 9.52031,-26.19279 z m -2.01992,7.19571 -2.88429,7.77164 h 7.50038 l -2.88429,-7.77164 c -0.28812,-1.15127 -0.57624,-2.01472 -0.86437,-2.87817 v 0 c -0.28812,0.86345 -0.57931,1.7269 -0.86743,2.87817 z" fill="#58595b" id="path62" style="stroke-width:3.06513"/>
  <path fill-rule="evenodd" clip-rule="evenodd" d="m 554.48889,164.35372 c 4.6161,0 8.0797,1.15126 10.38774,3.45379 2.30805,2.30284 3.17241,5.181 3.46053,9.21073 0,4.02973 -1.15248,7.19601 -3.46053,9.78636 -2.30804,2.59065 -6.3479,4.02973 -11.25211,4.02973 -1.23525,0 -2.30804,-0.0824 -3.30115,-0.15939 -0.8613,-0.0665 -1.66437,-0.12842 -2.46744,-0.12842 h -0.28812 v -25.61717 h 0.28812 c 0.23296,-0.0291 0.46284,-0.0582 0.68967,-0.0871 2.02911,-0.25594 3.87125,-0.48858 5.94329,-0.48858 z m -4.3249,23.89026 h 3.46053 c 7.50039,0 11.82836,-4.02973 11.82836,-10.93793 0,-3.16597 -0.86437,-5.75662 -2.59617,-7.48352 -2.01992,-2.01502 -4.90422,-2.87847 -8.65595,-2.87847 -1.72873,0 -3.17241,0 -4.03677,0.28782 z" fill="#58595b" id="path63" style="stroke-width:3.06513"/>
  <path d="m 587.66591,190.54651 h -13.84828 v -26.19279 h 13.27202 v 2.59034 h -10.6728 v 8.6351 h 10.09656 v 2.59065 h -10.09656 v 10.07417 h 11.24906 z" fill="#58595b" id="path64" style="stroke-width:3.06513"/>
  <path d="m 604.39847,190.83464 c -4.03984,0 -6.92414,-1.15158 -9.23219,-3.4541 -2.30804,-2.30284 -3.74865,-5.75663 -3.74865,-9.78636 0,-6.62039 4.32797,-13.52828 13.55708,-13.52828 2.88736,0 5.19541,0.86345 6.05977,1.15127 l 0.28812,0.28781 -0.86436,2.30284 -0.57625,-0.28782 c -1.44367,-0.57563 -3.17547,-1.15157 -5.1954,-1.15157 -6.63295,0 -10.6728,4.31755 -10.6728,10.93793 0,6.90789 3.74866,10.93762 10.38468,10.93762 2.59617,0 4.03985,-0.28781 4.90421,-0.57563 v -8.05946 h -5.76859 v -2.30253 h 8.65288 v 12.08889 h -0.28812 c -0.86437,0.57563 -3.74866,1.43939 -7.50038,1.43939 z" fill="#58595b" id="path65" style="stroke-width:3.06513"/>
  <path d="m 632.67127,190.54651 h -13.84522 v -26.19279 h 2.59618 v 23.89026 h 11.24904 z" fill="#58595b" id="path66" style="stroke-width:3.06513"/>
  <rect x="637.57544" y="164.35371" width="2.5964658" height="26.192949" fill="#58595b" id="rect66" style="stroke-width:3.06513"/>
  <path d="m 662.96399,190.83433 c -2.30806,0 -4.90422,-0.86345 -6.34483,-1.7269 l -0.29119,-0.28781 1.15555,-2.30284 0.57625,0.28782 c 1.44368,0.86345 3.4636,1.43908 5.19234,1.43908 3.4636,0 5.77165,-1.7269 5.77165,-4.89318 0,-2.59035 -1.44368,-4.02943 -4.90421,-5.46881 -4.6161,-1.7269 -6.92415,-4.02973 -6.92415,-7.48353 0,-4.02973 3.17241,-6.9082 7.78851,-6.9082 2.59617,0 4.32797,0.57563 5.19233,1.15127 l 0.28813,0.28812 -1.15249,2.30253 -0.57625,-0.28782 c -0.57931,-0.57563 -2.30804,-1.15126 -4.03984,-1.15126 -4.03986,0 -4.90422,2.59034 -4.90422,4.02973 0,2.30253 1.1525,3.74161 4.90422,5.181 4.03984,1.72689 6.63601,3.45379 6.63601,7.77134 0,5.75693 -4.32797,8.05946 -8.36781,8.05946 z" fill="#58595b" id="path67" style="stroke-width:3.06513"/>
  <path d="m 684.88889,190.54651 h -2.88429 v -23.60245 h -8.07663 v -2.59034 h 19.04062 v 2.59034 h -8.0797 z" fill="#58595b" id="path68" style="stroke-width:3.06513"/>
  <path d="m 705.66131,190.83433 c -7.78851,0 -8.94407,-6.62008 -8.94407,-10.64981 v -15.8308 h 2.59617 v 15.54299 c 0,5.46881 2.30804,8.34727 6.3479,8.34727 4.32796,0 6.63601,-2.87846 6.63601,-8.34727 v -15.54299 h 2.59616 v 15.54299 c 0.28813,10.07417 -6.34788,10.93762 -9.23217,10.93762 z" fill="#58595b" id="path69" style="stroke-width:3.06513"/>
  <path fill-rule="evenodd" clip-rule="evenodd" d="m 729.31801,164.35372 c 4.61608,0 8.07663,1.15126 10.38467,3.45379 2.30805,2.30284 3.4636,5.181 3.4636,9.21073 0,4.02973 -1.15555,7.19601 -3.4636,9.78636 -2.30804,2.59065 -6.34483,4.02973 -11.24904,4.02973 -1.23832,0 -2.30804,-0.0824 -3.30421,-0.15939 -0.86131,-0.0665 -1.66438,-0.12842 -2.46744,-0.12842 h -0.28812 v -25.61717 h 0.28812 c 0.23296,-0.0291 0.46284,-0.0582 0.69272,-0.0871 2.02605,-0.25594 3.8682,-0.48858 5.9433,-0.48858 z m -4.03985,23.89026 h 3.4636 c 7.50039,0 11.54023,-4.02973 11.82836,-10.93793 0,-3.16597 -0.86744,-5.75662 -2.59617,-7.48352 -2.01992,-2.01502 -4.90422,-2.87847 -8.65594,-2.87847 -1.7318,0 -3.17241,0 -4.03985,0.28782 z" fill="#58595b" id="path70" style="stroke-width:3.06513"/>
  <rect x="747.78235" y="164.35371" width="2.5964658" height="26.192949" fill="#58595b" id="rect70" style="stroke-width:3.06513"/>
  <rect x="792.49963" y="164.35371" width="2.5964658" height="26.192949" fill="#58595b" id="rect71" style="stroke-width:3.06513"/>
  <path fill-rule="evenodd" clip-rule="evenodd" d="m 774.32337,164.35372 c 4.6161,0 8.0797,1.15126 10.38774,3.45379 2.01686,2.30284 3.17241,5.181 3.46054,9.21073 0,4.02973 -1.15249,7.19601 -3.46054,9.78636 -2.30804,2.59065 -6.3479,4.02973 -11.25211,4.02973 -1.23831,0 -2.30804,-0.0824 -3.30421,-0.15939 -0.85824,-0.0665 -1.66436,-0.12842 -2.46743,-0.12842 h -0.28812 v -25.61717 h 0.28812 c 0.23295,-0.0291 0.46589,-0.0582 0.69272,-0.0871 2.02605,-0.25594 3.8682,-0.48858 5.94329,-0.48858 z m -4.61609,23.89026 h 3.75172 c 7.50039,0 11.82836,-4.02973 11.54024,-10.93793 0,-3.16597 -0.86744,-5.75662 -2.59617,-7.48352 -2.01992,-2.01502 -4.90422,-2.87847 -8.65595,-2.87847 -1.7318,0 -3.17241,0 -4.03984,0.28782 z" fill="#58595b" id="path71" style="stroke-width:3.06513"/>
  <path d="m 368.1226,227.96506 h -2.59923 v -0.57564 L 364.659,214.14896 c -0.28812,-2.30253 -0.28812,-5.18099 -0.28812,-7.48352 -0.86436,2.01471 -1.44368,4.31754 -2.59617,7.19571 l -5.48046,14.10391 h -2.01992 l -5.1954,-13.8161 c -1.15249,-2.87816 -1.72874,-5.18099 -2.59617,-7.19571 0,2.30253 -0.28812,5.46882 -0.57625,8.92292 l -0.86436,12.08889 h -2.59617 l 2.01992,-26.1928 h 2.88429 v 0.28781 l 5.48046,14.39172 c 0.86437,2.59035 1.7318,4.60538 2.30805,6.9079 0.57624,-1.7269 1.44368,-4.02974 2.30804,-6.9079 l 5.76858,-14.96735 h 2.88736 z" fill="#58595b" id="path72" style="stroke-width:3.06513"/>
  <path fill-rule="evenodd" clip-rule="evenodd" d="m 373.60307,215.30023 c 0,-8.05916 4.90421,-13.81579 11.82834,-13.81579 6.92415,0 11.54024,5.46881 11.54024,13.24015 0,9.49855 -6.05977,13.8161 -11.82836,13.8161 -6.92413,0 -11.54022,-5.46882 -11.54022,-13.24046 z m 3.17241,-0.28782 c 0,5.46912 2.88429,10.93793 8.65593,10.93793 4.03679,0 8.65288,-3.45409 8.941,-11.22575 0,-5.46881 -2.88429,-10.93762 -8.65286,-10.93762 -6.05978,0 -8.94407,5.75663 -8.94407,11.22544 z" fill="#58595b" id="path73" style="stroke-width:3.06513"/>
  <path fill-rule="evenodd" clip-rule="evenodd" d="m 410.24061,201.77226 c 4.6161,0 8.0797,1.15126 10.38774,3.4541 2.30805,2.30253 3.46054,5.46881 3.46054,9.21072 0,4.02943 -1.15249,7.19571 -3.46054,9.78637 -2.30804,2.59034 -6.3479,4.02942 -11.25211,4.02942 v 0 c -1.7318,0 -3.75172,0 -5.76857,-0.28781 h -0.28812 v -25.61717 h 0.28812 c 0.23294,-0.0291 0.46282,-0.0582 0.68965,-0.0871 2.02912,-0.25594 3.87127,-0.48859 5.94329,-0.48859 z m -4.03678,23.89027 h 3.46054 c 7.50038,0 11.54023,-4.02974 11.82835,-10.93763 0,-3.16628 -0.86437,-5.75693 -2.59617,-7.48383 -2.01992,-2.01471 -4.90422,-2.87847 -8.65594,-2.87847 -1.72873,0 -3.17241,0 -4.03678,0.28782 z" fill="#58595b" id="path74" style="stroke-width:3.06513"/>
  <path d="m 444.28505,227.96506 h -13.84826 v -26.1928 h 13.26896 v 2.59034 h -10.6728 v 8.6351 h 10.09656 v 2.59065 h -10.09656 v 10.07418 h 11.2521 z" fill="#58595b" id="path75" style="stroke-width:3.06513"/>
  <path d="m 469.38237,227.96506 h -2.30497 l -9.81149,-14.96736 c -1.44062,-2.30253 -2.8843,-4.60537 -4.03679,-6.33226 v 8.05946 13.24016 h -2.59617 v -26.1928 h 2.30805 l 9.80843,14.96736 c 1.44061,2.30283 2.88429,4.31755 3.74865,6.04444 0,-2.59035 -0.28812,-4.89319 -0.28812,-8.34698 v -12.66482 h 2.59617 v 26.1928 z" fill="#58595b" id="path76" style="stroke-width:3.06513"/>
  <path fill-rule="evenodd" clip-rule="evenodd" d="m 486.98237,202.06007 v 0.28782 l 9.52031,25.90498 h -2.88736 l -3.17241,-8.92292 h -9.23218 l -3.17241,8.92292 h -2.88429 l 0.28812,-0.57564 9.23218,-25.61716 z m -2.01992,6.9079 -2.88736,7.77165 h 7.50346 l -2.88736,-7.77165 c -0.28812,-1.15127 -0.57624,-2.01472 -0.86438,-2.87847 v 0 c -0.28812,0.86375 -0.57624,1.7272 -0.86436,2.87847 z" fill="#58595b" id="path77" style="stroke-width:3.06513"/>
  <path d="m 526.50728,227.96506 h -14.1364 v -26.1928 h 13.55709 v 2.59034 h -10.6728 v 8.6351 h 10.09655 v 2.59065 h -10.09655 v 10.07418 h 11.25211 z" fill="#58595b" id="path78" style="stroke-width:3.06513"/>
  <path fill-rule="evenodd" clip-rule="evenodd" d="m 557.66437,220.76934 c 0.57624,3.45411 1.15248,5.75664 1.7318,6.62008 l 0.28812,0.86345 h -2.88736 v -0.28781 c -0.57624,-0.86345 -1.15249,-3.16599 -1.72873,-6.33227 -0.57931,-3.74192 -2.01992,-5.181 -5.1954,-5.181 h -3.46053 v 11.51327 h -2.59618 v -25.61717 h 0.28812 c 1.44368,-0.28782 3.4636,-0.57563 5.48047,-0.57563 3.4636,0 5.77164,0.86345 7.21225,2.30253 1.44368,1.15157 2.01992,3.16628 2.01992,4.89318 0,2.87846 -1.44061,5.46911 -4.32796,6.62038 1.44368,0.86344 2.59923,2.59035 3.17548,5.18099 z m -11.2521,-6.62038 h 3.46053 c 3.75172,0 6.05977,-2.01471 6.05977,-5.18099 0,-4.02943 -3.46054,-4.89318 -6.34789,-4.89318 -0.88276,0 -1.65824,0.1082 -2.25901,0.19187 -0.38007,0.0527 -0.68966,0.0959 -0.9134,0.0959 z" fill="#58595b" id="path79" style="stroke-width:3.06513"/>
  <path d="m 579.30115,227.96506 h -13.84827 v -26.1928 h 13.27203 v 2.59034 h -10.67587 v 8.6351 h 10.09656 v 2.59065 h -10.09656 v 10.07418 h 11.25211 z" fill="#58595b" id="path80" style="stroke-width:3.06513"/>
  <path d="m 596.89808,228.25287 c -4.03677,0 -6.92413,-1.15126 -9.22912,-3.4541 -2.30804,-2.30252 -3.75172,-5.75663 -3.75172,-9.78636 0,-6.62008 4.32797,-13.52797 13.56016,-13.52797 2.59616,0 4.90421,0.57563 6.05669,1.15127 l 0.28814,0.28781 -0.86438,2.30253 -0.57624,-0.28782 c -1.44368,-0.57563 -3.17548,-1.15126 -5.19234,-1.15126 -6.63602,0 -10.67586,4.31755 -10.67586,10.93762 0,6.9082 3.75172,10.93794 10.38467,10.93794 2.59924,0 4.03985,-0.28782 4.90421,-0.57563 v -8.05947 h -5.76857 v -2.30284 h 8.65593 v 12.0892 h -0.28812 c -0.86744,0.57563 -3.75172,1.43908 -7.50345,1.43908 z" fill="#58595b" id="path81" style="stroke-width:3.06513"/>
  <path d="m 623.15096,228.25287 c -4.03679,0 -6.92415,-1.15126 -9.23219,-3.4541 -2.30804,-2.30252 -3.74865,-5.75663 -3.74865,-9.78636 0,-6.62008 4.32796,-13.52797 13.56015,-13.52797 2.59617,0 4.90421,0.57563 6.0567,1.15127 l 0.28812,0.28781 -0.86436,2.30253 -0.57625,-0.28782 c -1.44368,-0.57563 -3.17548,-1.15126 -5.1954,-1.15126 -6.63295,0 -10.6728,4.31755 -10.6728,10.93762 0,6.9082 3.75173,10.93794 10.38468,10.93794 2.59616,0 4.03984,-0.28782 4.90421,-0.57563 v -8.05947 h -5.76858 v -2.30284 h 8.65594 v 12.0892 h -0.28813 c -1.15555,0.57563 -3.75172,1.43908 -7.50344,1.43908 z" fill="#58595b" id="path82" style="stroke-width:3.06513"/>
  <rect x="637.8667" y="201.77226" width="2.5964658" height="26.192949" fill="#58595b" id="rect82" style="stroke-width:3.06513"/>
  <path fill-rule="evenodd" clip-rule="evenodd" d="m 647.09579,215.30023 c 0,-8.05916 4.90421,-13.81579 11.82834,-13.81579 6.92415,0 11.54024,5.46881 11.54024,13.24015 0,9.49855 -6.0567,13.8161 -11.82836,13.8161 -6.92413,0 -11.54022,-5.46882 -11.54022,-13.24046 z m 2.88429,-0.28782 c 0,5.46912 2.88735,10.93793 8.65593,10.93793 4.32798,0 8.94407,-3.45409 8.94407,-11.22575 0,-5.46881 -2.88429,-10.93762 -8.65595,-10.93762 -6.0567,0 -8.94405,5.75663 -8.94405,11.22544 z" fill="#58595b" id="path83" style="stroke-width:3.06513"/>
  <path d="m 701.33333,227.96506 h -13.84828 v -26.1928 h 13.27204 v 2.59034 h -10.6728 v 8.6351 h 10.09655 v 2.59065 h -10.09655 v 10.07418 h 11.24904 z" fill="#58595b" id="path84" style="stroke-width:3.06513"/>
  <path d="m 732.49043,227.96506 h -2.59618 v -0.28783 l -0.86437,-13.81608 c 0,-2.30253 -0.28812,-4.89318 -0.28812,-6.9079 -0.86436,2.01472 -1.44368,4.31755 -2.59616,7.19571 l -5.48353,14.10391 h -2.01686 l -5.1954,-13.81579 c -0.86437,-2.59065 -1.72874,-5.1813 -2.59617,-7.19601 0,2.01471 -0.28812,5.181 -0.57624,8.92291 l -0.86437,12.08889 h -2.59618 l 2.01687,-26.1928 h 2.88735 v 0.28782 l 5.48046,14.39173 c 0.86438,2.59064 1.7318,4.89317 2.30804,6.90789 0.57626,-2.01472 1.44368,-4.31725 2.30806,-6.90789 l 5.76858,-14.96736 h 2.88735 v 0.28781 z" fill="#58595b" id="path85" style="stroke-width:3.06513"/>
  <rect x="739.70569" y="201.77226" width="2.5964658" height="26.192949" fill="#58595b" id="rect85" style="stroke-width:3.06513"/>
  <path d="m 764.22681,227.96506 h -13.84826 v -26.1928 h 2.59616 v 23.89027 h 11.2521 z" fill="#58595b" id="path86" style="stroke-width:3.06513"/>
  <rect x="769.99536" y="201.77226" width="2.5964658" height="26.192949" fill="#58595b" id="rect86" style="stroke-width:3.06513"/>
  <path fill-rule="evenodd" clip-rule="evenodd" d="m 790.47969,202.06007 v 0.28782 L 800,228.25287 h -2.88429 l -3.17242,-8.92292 h -9.23218 l -3.17548,8.92292 h -2.88428 l 0.28812,-0.57564 9.23218,-25.61716 z m -2.30804,6.9079 -2.88429,7.77165 h 7.50037 l -2.88428,-7.77165 c -0.28813,-1.15127 -0.57625,-2.01472 -0.86437,-2.87847 v 0 c -0.29119,0.86375 -0.57931,1.7272 -0.86743,2.87847 z" fill="#58595b" id="path87" style="stroke-width:3.06513"/>
</svg>